<?xml version="1.0" encoding="UTF-8"?>
<!DOCTYPE svg PUBLIC "-//W3C//DTD SVG 1.1//EN" "http://www.w3.org/Graphics/SVG/1.1/DTD/svg11.dtd">
<!-- Creator: CorelDRAW -->
<svg xmlns="http://www.w3.org/2000/svg" xml:space="preserve" width="88.1944mm" height="25.4mm" version="1.1" style="shape-rendering:geometricPrecision; text-rendering:geometricPrecision; image-rendering:optimizeQuality; fill-rule:evenodd; clip-rule:evenodd"
viewBox="0 0 33046.35 9517.35"
 xmlns:xlink="http://www.w3.org/1999/xlink"
 xmlns:xodm="http://www.corel.com/coreldraw/odm/2003">
 <defs>
  <style type="text/css">
   <![CDATA[
    .str0 {stroke:#FEFEFE;stroke-width:281.02;stroke-miterlimit:22.9256}
    .fil6 {fill:#FEFEFE}
    .fil3 {fill:#FEFEFE}
    .fil8 {fill:#274454}
    .fil0 {fill:#300382}
    .fil7 {fill:#3ABED7}
    .fil1 {fill:#4A22A9}
    .fil9 {fill:#E72325}
    .fil2 {fill:#FEFEFE;fill-rule:nonzero}
    .fil4 {fill:url(#id2)}
    .fil5 {fill:url(#id3)}
   ]]>
  </style>
    <mask id="id0">
  <radialGradient id="id1" gradientUnits="userSpaceOnUse" cx="26130.27" cy="6540.07" r="0" fx="26130.27" fy="6540.07">
   <stop offset="0" style="stop-opacity:1; stop-color:white"/>
   <stop offset="0.611765" style="stop-opacity:0.501961; stop-color:white"/>
   <stop offset="1" style="stop-opacity:0; stop-color:white"/>
  </radialGradient>
     <rect style="fill:url(#id1)" x="26092.8" y="6502.6" width="1471.48" height="1883.72"/>
    </mask>
  <radialGradient id="id2" gradientUnits="userSpaceOnUse" gradientTransform="matrix(0.940644 -0.0130126 0.016809 1.21507 1480 -1188)" cx="26968.17" cy="7155.03" r="741.6" fx="26968.17" fy="7155.03">
   <stop offset="0" style="stop-opacity:1; stop-color:#FEFEFE"/>
   <stop offset="0.780392" style="stop-opacity:1; stop-color:#F9C299"/>
   <stop offset="1" style="stop-opacity:1; stop-color:#F58634"/>
  </radialGradient>
  <radialGradient id="id3" gradientUnits="userSpaceOnUse" gradientTransform="matrix(0.820539 -0.0113511 0.0146628 1.05993 4717 -124)" cx="26870.41" cy="7155.03" r="850.15" fx="26870.41" fy="7155.03">
   <stop offset="0" style="stop-opacity:1; stop-color:#F1E927"/>
   <stop offset="0.619608" style="stop-opacity:1; stop-color:#F5C73F"/>
   <stop offset="1" style="stop-opacity:1; stop-color:#F9A656"/>
  </radialGradient>
 </defs>
 <g id="Camada_x0020_1">
  <metadata id="CorelCorpID_0Corel-Layer"/>
  <g id="_2381987297520">
   <path class="fil0" d="M-0 0l17081.89 0 0 9517.35 -17081.89 0 0 -9517.35zm2194.46 2187.23l-543.28 -1293.46 333.03 0 384.4 957.36 372.34 -957.36 325.61 0 -544.33 1293.46 -327.79 0zm1127.32 -651.11l-264.43 -40.65c29.75,-90.64 80.75,-157.49 153.25,-201.18 72.58,-43.35 180.53,-65.35 323.52,-65.35 130.25,0 226.88,13.26 290.62,39.46 63.36,26.19 108.33,59.31 134.1,99.67 25.85,40.36 38.93,114.17 38.93,221.97l-3.15 289.42c0,82.21 4.61,143.06 14.16,182.18 9.18,38.86 26.87,81.01 52.38,125.6l-288.44 0c-7.46,-16.56 -17.01,-40.95 -27.99,-73.18 -4.61,-14.76 -8.13,-24.39 -10.27,-29.23 -49.91,41.25 -103,71.98 -159.62,92.78 -56.62,20.46 -117.17,30.73 -181.58,30.73 -113.23,0 -202.82,-26.23 -267.95,-78.31 -65.5,-52.42 -98.02,-118.67 -98.02,-198.78 0,-52.68 14.88,-99.97 44.59,-141.52 29.75,-41.55 71.49,-73.18 124.96,-95.17 53.43,-21.99 130.96,-41.25 231.79,-57.82 135.94,-21.7 230.44,-42.15 282.82,-60.85l0 -24.69c0,-47.89 -13.79,-81.61 -41.4,-102.11 -27.62,-20.16 -79.66,-30.39 -156.47,-30.39 -52.01,0 -92.33,8.73 -121.4,26.19 -29,17.16 -52.35,47.59 -70.41,91.24zm389.69 201.18c-37.17,10.57 -96.26,23.19 -177.35,37.96 -80.67,14.76 -133.43,29.23 -158.54,43.05 -37.88,23.19 -56.99,52.12 -56.99,87.34 0,34.92 15.21,64.75 45.68,90.04 30.43,25.29 69.02,37.96 116.08,37.96 52.72,0 102.63,-14.76 150.44,-43.95 35.33,-22.29 58.38,-49.72 69.36,-82.25 7.79,-21.06 11.32,-61.41 11.32,-120.77l0 -49.39zm573.74 449.94l0 -1293.46 291.33 0 0 1293.46 -291.33 0zm590.04 0l0 -1293.46 291.29 0 0 1293.46 -291.29 0zm522.41 -481.86c0,-82.21 24.06,-162.02 71.53,-239.1 47.77,-76.81 115.37,-135.83 202.79,-176.18 87.42,-40.65 185.06,-61.15 293.05,-61.15 166.33,0 302.98,46.09 409.51,138.23 106.53,92.18 159.62,208.41 159.62,349.07 0,141.52 -53.81,258.99 -161.05,352.33 -107.58,93.37 -242.8,139.76 -405.99,139.76 -101.21,0 -197.13,-19.3 -288.78,-58.15 -91.69,-38.82 -161.38,-95.74 -209.16,-170.75 -47.47,-74.98 -71.53,-166.22 -71.53,-274.05zm298.71 13.26c0,93.04 25.85,164.12 77.9,213.5 51.63,49.42 115.71,74.12 191.81,74.12 76.1,0 139.84,-24.69 191.13,-74.12 51.71,-49.39 77.15,-121.07 77.15,-215.3 0,-91.58 -25.44,-162.32 -77.15,-211.74 -51.3,-49.39 -115.03,-74.08 -191.13,-74.08 -76.1,0 -140.17,24.69 -191.81,74.08 -52.05,49.42 -77.9,120.77 -77.9,213.54zm1790.99 468.6l0 -140.32c-40.39,49.98 -93.08,89.44 -158.24,118.33 -65.46,28.63 -134.48,43.09 -207.06,43.09 -73.97,0 -140.17,-13.86 -198.93,-41.29 -58.72,-27.69 -101.21,-66.55 -127.73,-116.53 -26.19,-49.98 -39.34,-119.27 -39.34,-207.51l0 -592.66 291.33 0 0 430.34c0,131.93 5.32,212.64 16.3,242.43 10.6,29.53 30.05,53.02 58.38,70.48 28.33,17.46 64.45,25.89 107.95,25.89 49.95,0 94.5,-11.43 133.81,-34.62 39.31,-23.49 66.21,-52.12 80.71,-86.44 14.5,-34.62 21.92,-118.97 21.92,-252.96l0 -395.12 291.29 0 0 936.9 -270.38 0zm851.24 0l-291.29 0 0 -936.9 270.38 0 0 133.09c46.35,-62.91 88.17,-104.5 124.92,-124.36 37.17,-19.9 78.95,-30.13 126.05,-30.13 66.55,0 130.25,15.66 191.81,46.99l-90.26 215.94c-48.86,-26.83 -94.46,-40.36 -136.62,-40.36 -41.03,0 -75.39,9.33 -103.72,28.59 -28.66,19 -50.92,53.62 -66.88,103.6 -16.3,49.98 -24.39,154.79 -24.39,314.11l0 289.42zm1184.95 -298.15l290.62 41.25c-37.51,90.64 -96.26,159.62 -177.01,206.91 -80.3,47.59 -181.2,71.08 -302.27,71.08 -191.47,0 -333.03,-53.02 -425.02,-159.62 -72.58,-85.24 -109.04,-193.04 -109.04,-322.84 0,-155.39 47.77,-277.09 143.32,-364.99 95.21,-87.94 215.94,-131.93 361.73,-131.93 163.89,0 293.05,46.09 387.93,138.23 94.5,92.18 139.8,233.1 135.94,423.15l-730.18 0c2.1,73.48 25.44,130.7 70.41,171.35 44.96,40.95 101.24,61.45 168.13,61.45 45.68,0 83.9,-10.57 115.03,-31.62 31.14,-21.4 54.86,-55.42 70.41,-102.41zm16.67 -250.56c-2.14,-71.98 -23.72,-126.5 -65.16,-163.82 -41.37,-37.36 -91.99,-56.02 -151.49,-56.02 -63.66,0 -116.08,19.86 -157.45,59.31 -41.82,39.16 -61.98,92.78 -61.26,160.52l435.36 0zm1487.26 -111.14l-287.39 43.99c-9.55,-48.79 -31.47,-85.54 -65.83,-110.24 -34.36,-24.69 -78.57,-37.06 -133.09,-37.06 -72.92,0 -130.58,21.4 -173.75,63.85 -43.2,42.79 -64.79,114.13 -64.79,214.14 0,111.14 21.92,189.71 65.83,235.5 43.88,45.79 102.67,68.68 176.6,68.68 55.23,0 100.53,-13.26 135.94,-40.06 35.41,-26.83 60.14,-72.88 74.68,-137.96l286.34 41.29c-29.75,111.7 -87.08,196.34 -171.31,253.26 -84.23,57.22 -197.17,85.54 -339.1,85.54 -161.05,0 -289.49,-43.09 -385.08,-129.5 -95.92,-86.44 -143.7,-206.31 -143.7,-359.3 0,-154.49 48.11,-274.95 144.03,-361.1 96.3,-86.41 226.17,-129.5 390.1,-129.5 134.1,0 240.63,24.69 319.92,73.78 78.95,49.09 135.94,124.1 170.6,224.67zm-9221.64 1385.04l561 0c126.39,0 222.65,8.13 289.19,24.69 89.18,22.26 165.62,62.01 228.98,119.23 63.74,56.95 112.22,126.8 145.46,209.31 32.94,82.85 49.61,184.61 49.61,305.98 0,106.34 -15.59,198.18 -46.72,275.25 -37.88,93.97 -92.06,170.19 -162.81,228.3 -53.13,44.25 -125,78.61 -215.56,103.3 -67.6,18.36 -158.24,27.39 -271.84,27.39l-577.3 0 0 -1293.46zm306.92 218.94l0 856.49 228.98 0c85.66,0 147.56,-3.93 185.81,-12.37 49.57,-10.53 90.98,-28.29 123.88,-53.58 32.94,-25.29 59.46,-67.18 80.34,-125 20.53,-57.82 31.14,-136.73 31.14,-237 0,-99.97 -10.6,-176.48 -31.14,-230.1 -20.87,-53.58 -49.87,-95.44 -87.04,-125.26 -37.51,-30.13 -84.94,-50.28 -142.27,-60.85 -42.87,-8.43 -126.76,-12.33 -252.02,-12.33l-137.66 0zm1225.68 10.53l0 -229.47 291.29 0 0 229.47 -291.29 0zm0 1064l0 -936.9 291.29 0 0 936.9 -291.29 0zm562.76 61.75l333.03 34.32c5.7,33.12 18.44,55.72 38.26,68.05 27.58,17.8 71.16,26.53 130.58,26.53 76.1,0 133.09,-9.67 171.31,-29.23 25.52,-12.96 44.96,-33.72 58.04,-62.65 8.84,-20.46 13.49,-58.42 13.49,-113.83l0 -136.73c-87.08,101.21 -197.17,151.79 -329.88,151.79 -147.97,0 -265.1,-53.32 -351.47,-159.62 -67.6,-84.31 -101.58,-188.81 -101.58,-314.11 0,-157.19 44.59,-277.05 133.43,-360.16 88.84,-82.85 199.26,-124.4 331.27,-124.4 135.94,0 248.46,50.92 336.97,152.69l0 -131.29 272.52 0 0 840.82c0,110.54 -10.6,193.04 -32.19,247.86 -21.25,54.82 -51.3,97.57 -89.89,128.9 -38.93,31.03 -90.6,55.42 -155.05,73.18 -64.79,17.46 -146.51,26.49 -245.28,26.49 -186.86,0 -319.24,-27.39 -397.14,-81.61 -78.2,-54.52 -117.13,-123.46 -117.13,-206.91 0,-8.43 0.34,-18.36 0.71,-30.09zm260.53 -549.61c0,99.37 22.63,172.25 67.93,218.34 45.34,46.05 100.91,69.24 167.45,69.24 71.12,0 131.26,-23.79 180.49,-71.08 48.82,-47.25 73.59,-117.43 73.59,-210.51 0,-96.97 -23.68,-168.95 -70.78,-215.94 -46.72,-47.25 -106.15,-70.74 -178.02,-70.74 -70.07,0 -127.4,23.19 -172.74,69.24 -45.3,46.39 -67.93,116.57 -67.93,211.44zm1063.92 -576.14l0 -229.47 291.33 0 0 229.47 -291.33 0zm0 1064l0 -936.9 291.33 0 0 936.9 -291.33 0zm1094.72 -936.9l0 197.54 -198.89 0 0 377.66c0,76.51 1.8,121.07 5.66,133.73 3.9,12.63 12.4,22.89 25.85,31.32 13.45,8.13 30.09,12.33 49.2,12.33 27.24,0 66.17,-8.13 117.13,-23.79l25.14 192.15c-67.93,24.69 -144.37,37.06 -230.4,37.06 -52.38,0 -99.82,-7.53 -141.94,-22.29 -42.12,-15.06 -72.92,-34.62 -92.74,-58.42 -19.82,-23.79 -33.27,-56.02 -41.07,-96.67 -6,-28.63 -9.18,-87.04 -9.18,-174.68l0 -408.38 -133.81 0 0 -197.54 133.81 0 0 -186.11 292.34 -144.86 0 330.97 198.89 0zm420.19 285.78l-264.43 -40.65c29.75,-90.64 80.75,-157.49 153.25,-201.18 72.58,-43.35 180.53,-65.35 323.52,-65.35 130.25,0 226.88,13.26 290.58,39.46 63.4,26.19 108.36,59.31 134.14,99.67 25.85,40.36 38.93,114.17 38.93,221.97l-3.15 289.42c0,82.21 4.61,143.06 14.16,182.18 9.14,38.86 26.87,81.01 52.35,125.6l-288.44 0c-7.42,-16.56 -16.97,-40.95 -27.95,-73.18 -4.61,-14.76 -8.13,-24.39 -10.27,-29.23 -49.91,41.25 -103,71.98 -159.62,92.78 -56.62,20.46 -117.17,30.73 -181.58,30.73 -113.27,0 -202.82,-26.23 -267.95,-78.31 -65.5,-52.42 -98.02,-118.67 -98.02,-198.78 0,-52.68 14.88,-99.97 44.59,-141.52 29.71,-41.55 71.49,-73.18 124.92,-95.17 53.47,-21.99 130.99,-41.25 231.83,-57.82 135.94,-21.7 230.44,-42.15 282.82,-60.85l0 -24.69c0,-47.89 -13.79,-81.61 -41.4,-102.11 -27.62,-20.16 -79.66,-30.39 -156.47,-30.39 -52.01,0 -92.33,8.73 -121.4,26.19 -29.04,17.16 -52.38,47.59 -70.41,91.24zm389.69 201.18c-37.17,10.57 -96.3,23.19 -177.35,37.96 -80.67,14.76 -133.43,29.23 -158.54,43.05 -37.88,23.19 -56.99,52.12 -56.99,87.34 0,34.92 15.18,64.75 45.68,90.04 30.43,25.29 68.98,37.96 116.08,37.96 52.72,0 102.63,-14.76 150.4,-43.95 35.37,-22.29 58.42,-49.72 69.39,-82.25 7.79,-21.06 11.32,-61.41 11.32,-120.77l0 -49.39zm573.74 449.94l0 -1293.46 291.33 0 0 1293.46 -291.33 0zm-4552.44 1860.83l-176.22 191.25c-86.41,-35.82 -169.21,-85.21 -248.88,-148.16 -61.56,46.99 -126.69,81.91 -196.04,104.2 -69.06,22.26 -151.15,33.42 -246.7,33.42 -189.37,0 -331.65,-45.19 -427.19,-135.83 -74,-69.88 -110.8,-150.59 -110.8,-241.83 0,-82.81 29,-157.52 87.04,-223.47 58.04,-66.25 144.75,-123.76 260.15,-172.55 -51.67,-52.42 -90.94,-102.41 -117.17,-149.69 -26.19,-47.25 -39.27,-92.14 -39.27,-134.59 0,-78.01 36.83,-144.56 110.46,-198.78 73.59,-54.52 178.32,-81.61 314.63,-81.61 131.33,0 233.92,28.59 307.89,85.54 74,56.92 110.8,126.76 111.17,208.97 -0.37,52.42 -18.4,102.11 -55.23,149.09 -36.46,47.29 -110.39,100.27 -221.9,159.92l211.63 237.3c24.81,-37.66 46.39,-86.74 64.45,-147.26l263.34 50.88c-26.57,79.51 -49.24,137.63 -68.72,174.38 -19.11,36.72 -39.98,67.45 -61.9,92.14 32.19,25.89 74.34,54.22 125.97,85.24 51.37,31.03 89.22,51.18 113.27,61.41zm-793.2 -703.2l78.95 -51.18c58.04,-38.26 87.08,-76.21 87.08,-113.83 0,-31.92 -14.2,-59.05 -42.12,-81.31 -27.95,-22.29 -65.83,-33.42 -113.61,-33.42 -46.01,0 -82.47,9.93 -108.66,29.49 -26.23,19.6 -39.64,42.49 -39.64,68.38 0,30.73 22.29,67.75 66.55,111.1l71.46 70.78zm-113.95 268.96c-67.26,28.89 -117.17,63.51 -150.4,104.2 -33.27,40.65 -49.95,81.91 -49.95,124.36 0,53.62 20.95,97.27 61.98,130.99 41.03,33.72 96.26,50.58 165.28,50.58 45.64,0 89.55,-7.49 131.67,-22.86 42.12,-15.06 88.09,-40.36 138.04,-75.91l-296.61 -311.37zm1676.63 592.06l0 -1293.46 306.88 0 0 1293.46 -306.88 0zm1599.1 0l-291.29 0 0 -478.23c0,-101.21 -6.41,-166.55 -18.77,-196.38 -12.37,-29.49 -32.9,-52.68 -60.85,-69.24 -27.95,-16.26 -61.6,-24.69 -100.91,-24.69 -50.58,0 -95.89,11.73 -135.87,35.22 -40.06,23.79 -67.6,54.82 -82.51,93.67 -14.88,38.86 -22.26,110.5 -22.26,215.3l0 424.35 -291.33 0 0 -936.9 270.38 0 0 137.63c96.34,-106 217.33,-159.02 363.2,-159.02 64.04,0 123.16,9.93 176.22,29.83 53.13,19.56 93.45,44.55 120.73,75.28 27.24,30.73 46.35,65.35 56.95,104.2 10.98,38.86 16.3,94.27 16.3,166.55l0 582.43zm167.79 -936.9l161.76 0 0 -70.78c0,-78.61 9.89,-137.63 29.71,-176.48 19.82,-38.86 55.94,-70.48 108.66,-94.87 53.09,-24.39 119.98,-36.42 200.65,-36.42 83.18,0 164.27,10.53 243.89,31.62l-39.27 173.15c-46.39,-9.63 -91.01,-14.13 -133.81,-14.13 -42.49,0 -72.58,8.13 -90.98,24.99 -18.4,16.86 -27.24,49.09 -27.24,96.67l0 66.25 217.66 0 0 194.84 -217.66 0 0 742.05 -291.63 0 0 -742.05 -161.76 0 0 -194.84zm767.35 455.03c0,-82.21 24.06,-162.02 71.53,-239.1 47.77,-76.81 115.37,-135.83 202.79,-176.18 87.42,-40.65 185.1,-61.15 293.05,-61.15 166.33,0 302.98,46.09 409.51,138.23 106.53,92.18 159.66,208.41 159.66,349.07 0,141.52 -53.84,258.99 -161.05,352.33 -107.61,93.37 -242.84,139.76 -405.99,139.76 -101.24,0 -197.17,-19.3 -288.82,-58.15 -91.69,-38.82 -161.38,-95.74 -209.16,-170.75 -47.47,-74.98 -71.53,-166.22 -71.53,-274.05zm298.71 13.26c0,93.04 25.85,164.12 77.9,213.5 51.67,49.42 115.74,74.12 191.85,74.12 76.06,0 139.8,-24.69 191.1,-74.12 51.71,-49.39 77.15,-121.07 77.15,-215.3 0,-91.58 -25.44,-162.32 -77.15,-211.74 -51.3,-49.39 -115.03,-74.08 -191.1,-74.08 -76.1,0 -140.17,24.69 -191.85,74.08 -52.05,49.42 -77.9,120.77 -77.9,213.54zm1345.02 468.6l-291.29 0 0 -936.9 270.38 0 0 133.09c46.39,-62.91 88.17,-104.5 124.92,-124.36 37.17,-19.9 78.99,-30.13 126.05,-30.13 66.55,0 130.25,15.66 191.81,46.99l-90.26 215.94c-48.82,-26.83 -94.46,-40.36 -136.62,-40.36 -41.03,0 -75.39,9.33 -103.68,28.59 -28.66,19 -50.96,53.62 -66.92,103.6 -16.26,49.98 -24.39,154.79 -24.39,314.11l0 289.42zm525.59 -936.9l268.62 0 0 127.7c95.92,-99.41 210.62,-149.09 343.34,-149.09 70.44,0 131.67,12.37 183.38,37.06 52.01,24.69 94.5,62.01 127.73,112.03 48.15,-50.02 100.53,-87.34 156.47,-112.03 55.91,-24.69 115.71,-37.06 179.44,-37.06 80.67,0 149.32,14.16 205.26,42.15 55.94,27.73 97.72,68.98 125.3,122.9 20.2,40.06 30.13,104.8 30.13,194.24l0 598.99 -291.33 0 0 -535.44c0,-93.08 -9.89,-152.99 -30.09,-180.12 -26.9,-35.22 -68.27,-52.98 -124.21,-52.98 -41.1,0 -79.32,10.53 -115.41,31.92 -35.75,21.06 -61.56,52.08 -77.53,93.04 -15.89,40.95 -24.06,105.4 -24.06,193.64l0 449.94 -291.29 0 0 -513.49c0,-91.24 -5.32,-149.95 -15.59,-176.48 -10.27,-26.49 -26.53,-46.05 -48.15,-59.02 -21.92,-12.93 -51.3,-19.56 -88.8,-19.56 -44.96,0 -85.32,10.23 -121.07,31.03 -36.12,20.46 -61.9,50.28 -77.49,89.14 -15.59,38.82 -23.34,102.97 -23.34,193.04l0 455.33 -291.33 0 0 -936.9zm2127.88 285.78l-264.39 -40.65c29.71,-90.64 80.71,-157.49 153.25,-201.18 72.58,-43.35 180.49,-65.35 323.52,-65.35 130.25,0 226.88,13.26 290.58,39.46 63.36,26.19 108.33,59.31 134.14,99.67 25.85,40.36 38.93,114.17 38.93,221.97l-3.18 289.42c0,82.21 4.65,143.06 14.2,182.18 9.14,38.86 26.87,81.01 52.35,125.6l-288.44 0c-7.42,-16.56 -16.97,-40.95 -27.95,-73.18 -4.65,-14.76 -8.17,-24.39 -10.27,-29.23 -49.95,41.25 -103,71.98 -159.62,92.78 -56.65,20.46 -117.21,30.73 -181.58,30.73 -113.27,0 -202.82,-26.23 -267.95,-78.31 -65.5,-52.42 -98.06,-118.67 -98.06,-198.78 0,-52.68 14.91,-99.97 44.63,-141.52 29.71,-41.55 71.46,-73.18 124.92,-95.17 53.47,-21.99 130.96,-41.25 231.83,-57.82 135.94,-21.7 230.44,-42.15 282.79,-60.85l0 -24.69c0,-47.89 -13.75,-81.61 -41.37,-102.11 -27.62,-20.16 -79.66,-30.39 -156.47,-30.39 -52.01,0 -92.36,8.73 -121.4,26.19 -29.04,17.16 -52.38,47.59 -70.44,91.24zm389.69 201.18c-37.17,10.57 -96.26,23.19 -177.31,37.96 -80.71,14.76 -133.47,29.23 -158.54,43.05 -37.88,23.19 -56.99,52.12 -56.99,87.34 0,34.92 15.18,64.75 45.68,90.04 30.43,25.29 68.98,37.96 116.08,37.96 52.68,0 102.63,-14.76 150.4,-43.95 35.37,-22.29 58.42,-49.72 69.36,-82.25 7.79,-21.06 11.32,-61.41 11.32,-120.77l0 -49.39zm1078.5 -486.96l0 197.54 -198.93 0 0 377.66c0,76.51 1.8,121.07 5.7,133.73 3.86,12.63 12.37,22.89 25.85,31.32 13.41,8.13 30.05,12.33 49.16,12.33 27.28,0 66.21,-8.13 117.17,-23.79l25.14 192.15c-67.97,24.69 -144.41,37.06 -230.4,37.06 -52.42,0 -99.86,-7.53 -141.94,-22.29 -42.15,-15.06 -72.95,-34.62 -92.74,-58.42 -19.82,-23.79 -33.31,-56.02 -41.1,-96.67 -6,-28.63 -9.14,-87.04 -9.14,-174.68l0 -408.38 -133.84 0 0 -197.54 133.84 0 0 -186.11 292.3 -144.86 0 330.97 198.93 0zm202.49 -127.1l0 -229.47 291.29 0 0 229.47 -291.29 0zm0 1064l0 -936.9 291.29 0 0 936.9 -291.29 0zm522.41 -481.86c0,-82.21 24.06,-162.02 71.53,-239.1 47.77,-76.81 115.37,-135.83 202.79,-176.18 87.42,-40.65 185.06,-61.15 293.05,-61.15 166.33,0 302.98,46.09 409.51,138.23 106.53,92.18 159.62,208.41 159.62,349.07 0,141.52 -53.81,258.99 -161.05,352.33 -107.58,93.37 -242.8,139.76 -405.95,139.76 -101.24,0 -197.17,-19.3 -288.82,-58.15 -91.69,-38.82 -161.38,-95.74 -209.16,-170.75 -47.47,-74.98 -71.53,-166.22 -71.53,-274.05zm298.71 13.26c0,93.04 25.85,164.12 77.9,213.5 51.63,49.42 115.71,74.12 191.81,74.12 76.1,0 139.84,-24.69 191.13,-74.12 51.71,-49.39 77.15,-121.07 77.15,-215.3 0,-91.58 -25.44,-162.32 -77.15,-211.74 -51.3,-49.39 -115.03,-74.08 -191.13,-74.08 -76.1,0 -140.17,24.69 -191.81,74.08 -52.05,49.42 -77.9,120.77 -77.9,213.54zm2067.78 468.6l-291.33 0 0 -478.23c0,-101.21 -6.37,-166.55 -18.73,-196.38 -12.4,-29.49 -32.9,-52.68 -60.89,-69.24 -27.95,-16.26 -61.6,-24.69 -100.87,-24.69 -50.62,0 -95.92,11.73 -135.9,35.22 -40.02,23.79 -67.6,54.82 -82.47,93.67 -14.91,38.86 -22.29,110.5 -22.29,215.3l0 424.35 -291.29 0 0 -936.9 270.38 0 0 137.63c96.3,-106 217.33,-159.02 363.16,-159.02 64.04,0 123.16,9.93 176.26,29.83 53.09,19.56 93.45,44.55 120.69,75.28 27.28,30.73 46.39,65.35 56.99,104.2 10.94,38.86 16.3,94.27 16.3,166.55l0 582.43zm-13582.95 1597.94l298.75 -24.69c17.65,85.21 54.11,147.86 109.34,187.91 54.86,39.76 128.86,59.95 222.31,59.95 98.73,0 173.41,-17.8 223.28,-53.32 50.25,-35.86 75.39,-77.41 75.39,-125 0,-30.69 -10.6,-56.62 -31.81,-77.97 -20.87,-21.7 -57.7,-40.36 -110.46,-56.02 -35.75,-10.87 -117.84,-29.53 -245.65,-56.62 -164.57,-34.66 -279.94,-77.41 -346.11,-128 -93.45,-71.08 -140.17,-157.82 -140.17,-260.19 0,-65.98 21.92,-127.4 65.83,-184.91 43.88,-57.22 107.24,-100.91 189.71,-131.03 82.85,-29.79 182.25,-44.85 299.05,-44.85 191.17,0 334.53,35.52 431.13,106.6 96.26,71.38 146.88,166.25 151.87,285.18l-306.88 11.47c-13.11,-66.55 -41.44,-114.43 -84.57,-143.36 -43.2,-29.19 -107.99,-43.65 -194.36,-43.65 -89.18,0 -159.28,15.36 -209.53,46.69 -32.52,19.86 -48.82,46.65 -48.82,80.07 0,30.73 15.18,56.95 45.68,78.61 38.56,27.73 132.72,56.62 282.04,86.44 149.39,30.13 259.82,61.11 331.31,93.04 71.49,32.22 127.44,75.91 168.13,131.63 40.32,55.72 60.51,124.36 60.51,205.97 0,74.08 -24.06,143.66 -72.54,208.11 -48.49,64.75 -116.83,112.93 -205.3,144.26 -88.47,31.62 -198.93,47.29 -330.93,47.29 -192.18,0 -339.81,-37.66 -442.74,-113.23 -103,-75.61 -164.64,-185.81 -184.43,-330.37zm1354.16 -516.19l310.03 0 263.34 665.24 257.31 -665.24 301.6 0 -388.64 901.68 -69.73 163.22c-25.48,54.52 -49.91,96.37 -72.92,125.26 -23.38,28.93 -49.87,52.12 -80,70.18 -30.09,17.76 -66.88,31.92 -110.76,41.85 -43.91,9.97 -93.45,15.06 -149.02,15.06 -55.94,0 -110.8,-5.1 -164.94,-15.06l-25.82 -194.24c45.64,7.83 86.71,11.47 123.5,11.47 67.6,0 117.84,-16.86 150.44,-50.62 32.19,-33.72 57.33,-76.78 74.68,-129.2l-419.06 -939.6zm1216.5 669.47l292.38 -37.96c12.37,48.19 37.51,84.94 75.73,109.94 37.88,24.99 90.98,37.62 159.62,37.62 75.43,0 132.04,-11.73 169.93,-35.52 25.85,-16.26 38.56,-38.56 38.56,-65.95 0,-18.96 -7.08,-34.62 -20.87,-46.99 -14.54,-11.73 -47.06,-22.59 -97.35,-32.52 -235.01,-43.95 -384.03,-84.31 -447.05,-120.77 -87.04,-50.58 -130.55,-121.07 -130.55,-211.11 0,-81.01 37.47,-149.39 112.86,-204.47 75.39,-55.42 192.22,-83.15 350.42,-83.15 150.78,0 262.96,21.1 336.25,62.65 73.29,41.85 123.54,103.6 151.12,185.51l-274.65 43.05c-11.65,-36.42 -33.99,-64.45 -66.88,-83.71 -32.94,-19.56 -79.66,-29.23 -140.51,-29.23 -76.81,0 -131.67,9.03 -164.94,27.43 -21.96,12.93 -32.94,29.79 -32.94,50.28 0,17.76 9.55,32.52 29.04,44.89 26.19,16.56 116.79,39.72 272.18,69.84 155.01,29.83 263.34,66.85 324.9,110.24 60.93,44.25 91.35,105.7 91.35,184.31 0,85.81 -42.15,159.88 -126.76,221.63 -84.19,61.75 -208.82,92.48 -374.1,92.48 -150.07,0 -268.62,-25.93 -356.41,-77.71 -87.42,-51.48 -144.41,-121.96 -171.31,-210.81zm1788.48 -669.47l0 197.54 -198.89 0 0 377.66c0,76.51 1.8,121.07 5.66,133.73 3.9,12.63 12.37,22.89 25.85,31.32 13.45,8.13 30.09,12.33 49.2,12.33 27.24,0 66.17,-8.13 117.13,-23.79l25.14 192.15c-67.93,24.69 -144.41,37.06 -230.4,37.06 -52.38,0 -99.82,-7.53 -141.94,-22.29 -42.12,-15.06 -72.92,-34.62 -92.74,-58.42 -19.82,-23.79 -33.27,-56.02 -41.07,-96.67 -6,-28.63 -9.18,-87.04 -9.18,-174.68l0 -408.38 -133.81 0 0 -197.54 133.81 0 0 -186.11 292.34 -144.86 0 330.97 198.89 0zm839.93 638.75l290.62 41.25c-37.51,90.64 -96.26,159.62 -177.01,206.91 -80.3,47.59 -181.2,71.08 -302.27,71.08 -191.47,0 -333.03,-53.02 -425.02,-159.62 -72.58,-85.24 -109.04,-193.04 -109.04,-322.84 0,-155.39 47.77,-277.09 143.32,-364.99 95.21,-87.94 215.94,-131.93 361.73,-131.93 163.89,0 293.05,46.09 387.93,138.23 94.5,92.18 139.8,233.1 135.94,423.15l-730.18 0c2.1,73.48 25.44,130.7 70.41,171.35 44.96,40.95 101.24,61.45 168.13,61.45 45.68,0 83.9,-10.57 115.03,-31.62 31.14,-21.4 54.86,-55.42 70.41,-102.41zm16.67 -250.56c-2.14,-71.98 -23.72,-126.5 -65.16,-163.82 -41.37,-37.36 -91.99,-56.02 -151.49,-56.02 -63.66,0 -116.08,19.86 -157.45,59.31 -41.82,39.16 -61.98,92.78 -61.26,160.52l435.36 0zm505.09 -388.19l268.62 0 0 127.7c95.92,-99.41 210.58,-149.09 343.3,-149.09 70.48,0 131.71,12.37 183.38,37.06 52.01,24.69 94.5,62.01 127.77,112.03 48.11,-50.02 100.53,-87.34 156.47,-112.03 55.91,-24.69 115.71,-37.06 179.44,-37.06 80.67,0 149.32,14.16 205.26,42.15 55.91,27.73 97.72,68.98 125.26,122.9 20.23,40.06 30.13,104.8 30.13,194.24l0 598.99 -291.29 0 0 -535.44c0,-93.08 -9.93,-152.99 -30.09,-180.12 -26.9,-35.22 -68.31,-52.98 -124.21,-52.98 -41.1,0 -79.32,10.53 -115.44,31.92 -35.71,21.06 -61.56,52.08 -77.49,93.04 -15.92,40.95 -24.06,105.4 -24.06,193.64l0 449.94 -291.29 0 0 -513.49c0,-91.24 -5.36,-149.95 -15.59,-176.48 -10.27,-26.49 -26.53,-46.05 -48.15,-59.02 -21.92,-12.93 -51.3,-19.56 -88.8,-19.56 -44.96,0 -85.32,10.23 -121.07,31.03 -36.12,20.46 -61.94,50.28 -77.53,89.14 -15.59,38.82 -23.34,102.97 -23.34,193.04l0 455.33 -291.29 0 0 -936.9zm1807.55 669.47l292.38 -37.96c12.37,48.19 37.51,84.94 75.73,109.94 37.88,24.99 90.98,37.62 159.66,37.62 75.39,0 132.01,-11.73 169.89,-35.52 25.85,-16.26 38.56,-38.56 38.56,-65.95 0,-18.96 -7.08,-34.62 -20.87,-46.99 -14.54,-11.73 -47.06,-22.59 -97.35,-32.52 -235.01,-43.95 -384.03,-84.31 -447.05,-120.77 -87.04,-50.58 -130.55,-121.07 -130.55,-211.11 0,-81.01 37.47,-149.39 112.86,-204.47 75.39,-55.42 192.22,-83.15 350.42,-83.15 150.78,0 262.96,21.1 336.25,62.65 73.29,41.85 123.54,103.6 151.15,185.51l-274.69 43.05c-11.65,-36.42 -33.99,-64.45 -66.88,-83.71 -32.94,-19.56 -79.66,-29.23 -140.51,-29.23 -76.81,0 -131.67,9.03 -164.94,27.43 -21.96,12.93 -32.94,29.79 -32.94,50.28 0,17.76 9.55,32.52 29.04,44.89 26.19,16.56 116.79,39.72 272.18,69.84 155.01,29.83 263.34,66.85 324.9,110.24 60.93,44.25 91.35,105.7 91.35,184.31 0,85.81 -42.15,159.88 -126.76,221.63 -84.19,61.75 -208.82,92.48 -374.06,92.48 -150.1,0 -268.66,-25.93 -356.45,-77.71 -87.42,-51.48 -144.41,-121.96 -171.31,-210.81z"/>
   <polygon class="fil1" points="33046.35,0 17081.89,0 17081.89,9517.35 33046.35,9517.35 "/>
   <path class="fil2" d="M2194.46 2187.23l-543.28 -1293.46 333.03 0 384.4 957.36 372.34 -957.36 325.61 0 -544.33 1293.46 -327.79 0zm1127.32 -651.11l-264.43 -40.65c29.75,-90.64 80.75,-157.49 153.25,-201.18 72.58,-43.35 180.53,-65.35 323.52,-65.35 130.25,0 226.88,13.26 290.62,39.46 63.36,26.19 108.33,59.31 134.1,99.67 25.85,40.36 38.93,114.17 38.93,221.97l-3.15 289.42c0,82.21 4.61,143.06 14.16,182.18 9.18,38.86 26.87,81.01 52.38,125.6l-288.44 0c-7.46,-16.56 -17.01,-40.95 -27.99,-73.18 -4.61,-14.76 -8.13,-24.39 -10.27,-29.23 -49.91,41.25 -103,71.98 -159.62,92.78 -56.62,20.46 -117.17,30.73 -181.58,30.73 -113.23,0 -202.82,-26.23 -267.95,-78.31 -65.5,-52.42 -98.02,-118.67 -98.02,-198.78 0,-52.68 14.88,-99.97 44.59,-141.52 29.75,-41.55 71.49,-73.18 124.96,-95.17 53.43,-21.99 130.96,-41.25 231.79,-57.82 135.94,-21.7 230.44,-42.15 282.82,-60.85l0 -24.69c0,-47.89 -13.79,-81.61 -41.4,-102.11 -27.62,-20.16 -79.66,-30.39 -156.47,-30.39 -52.01,0 -92.33,8.73 -121.4,26.19 -29,17.16 -52.35,47.59 -70.41,91.24zm389.69 201.18c-37.17,10.57 -96.26,23.19 -177.35,37.96 -80.67,14.76 -133.43,29.23 -158.54,43.05 -37.88,23.19 -56.99,52.12 -56.99,87.34 0,34.92 15.21,64.75 45.68,90.04 30.43,25.29 69.02,37.96 116.08,37.96 52.72,0 102.63,-14.76 150.44,-43.95 35.33,-22.29 58.38,-49.72 69.36,-82.25 7.79,-21.06 11.32,-61.41 11.32,-120.77l0 -49.39zm573.74 449.94l0 -1293.46 291.33 0 0 1293.46 -291.33 0zm590.04 0l0 -1293.46 291.29 0 0 1293.46 -291.29 0zm522.41 -481.86c0,-82.21 24.06,-162.02 71.53,-239.1 47.77,-76.81 115.37,-135.83 202.79,-176.18 87.42,-40.65 185.06,-61.15 293.05,-61.15 166.33,0 302.98,46.09 409.51,138.23 106.53,92.18 159.62,208.41 159.62,349.07 0,141.52 -53.81,258.99 -161.05,352.33 -107.58,93.37 -242.8,139.76 -405.99,139.76 -101.21,0 -197.13,-19.3 -288.78,-58.15 -91.69,-38.82 -161.38,-95.74 -209.16,-170.75 -47.47,-74.98 -71.53,-166.22 -71.53,-274.05zm298.71 13.26c0,93.04 25.85,164.12 77.9,213.5 51.63,49.42 115.71,74.12 191.81,74.12 76.1,0 139.84,-24.69 191.13,-74.12 51.71,-49.39 77.15,-121.07 77.15,-215.3 0,-91.58 -25.44,-162.32 -77.15,-211.74 -51.3,-49.39 -115.03,-74.08 -191.13,-74.08 -76.1,0 -140.17,24.69 -191.81,74.08 -52.05,49.42 -77.9,120.77 -77.9,213.54zm1790.99 468.6l0 -140.32c-40.39,49.98 -93.08,89.44 -158.24,118.33 -65.46,28.63 -134.48,43.09 -207.06,43.09 -73.97,0 -140.17,-13.86 -198.93,-41.29 -58.72,-27.69 -101.21,-66.55 -127.73,-116.53 -26.19,-49.98 -39.34,-119.27 -39.34,-207.51l0 -592.66 291.33 0 0 430.34c0,131.93 5.32,212.64 16.3,242.43 10.6,29.53 30.05,53.02 58.38,70.48 28.33,17.46 64.45,25.89 107.95,25.89 49.95,0 94.5,-11.43 133.81,-34.62 39.31,-23.49 66.21,-52.12 80.71,-86.44 14.5,-34.62 21.92,-118.97 21.92,-252.96l0 -395.12 291.29 0 0 936.9 -270.38 0zm851.24 0l-291.29 0 0 -936.9 270.38 0 0 133.09c46.35,-62.91 88.17,-104.5 124.92,-124.36 37.17,-19.9 78.95,-30.13 126.05,-30.13 66.55,0 130.25,15.66 191.81,46.99l-90.26 215.94c-48.86,-26.83 -94.46,-40.36 -136.62,-40.36 -41.03,0 -75.39,9.33 -103.72,28.59 -28.66,19 -50.92,53.62 -66.88,103.6 -16.3,49.98 -24.39,154.79 -24.39,314.11l0 289.42zm1184.95 -298.15l290.62 41.25c-37.51,90.64 -96.26,159.62 -177.01,206.91 -80.3,47.59 -181.2,71.08 -302.27,71.08 -191.47,0 -333.03,-53.02 -425.02,-159.62 -72.58,-85.24 -109.04,-193.04 -109.04,-322.84 0,-155.39 47.77,-277.09 143.32,-364.99 95.21,-87.94 215.94,-131.93 361.73,-131.93 163.89,0 293.05,46.09 387.93,138.23 94.5,92.18 139.8,233.1 135.94,423.15l-730.18 0c2.1,73.48 25.44,130.7 70.41,171.35 44.96,40.95 101.24,61.45 168.13,61.45 45.68,0 83.9,-10.57 115.03,-31.62 31.14,-21.4 54.86,-55.42 70.41,-102.41zm16.67 -250.56c-2.14,-71.98 -23.72,-126.5 -65.16,-163.82 -41.37,-37.36 -91.99,-56.02 -151.49,-56.02 -63.66,0 -116.08,19.86 -157.45,59.31 -41.82,39.16 -61.98,92.78 -61.26,160.52l435.36 0zm1487.26 -111.14l-287.39 43.99c-9.55,-48.79 -31.47,-85.54 -65.83,-110.24 -34.36,-24.69 -78.57,-37.06 -133.09,-37.06 -72.92,0 -130.58,21.4 -173.75,63.85 -43.2,42.79 -64.79,114.13 -64.79,214.14 0,111.14 21.92,189.71 65.83,235.5 43.88,45.79 102.67,68.68 176.6,68.68 55.23,0 100.53,-13.26 135.94,-40.06 35.41,-26.83 60.14,-72.88 74.68,-137.96l286.34 41.29c-29.75,111.7 -87.08,196.34 -171.31,253.26 -84.23,57.22 -197.17,85.54 -339.1,85.54 -161.05,0 -289.49,-43.09 -385.08,-129.5 -95.92,-86.44 -143.7,-206.31 -143.7,-359.3 0,-154.49 48.11,-274.95 144.03,-361.1 96.3,-86.41 226.17,-129.5 390.1,-129.5 134.1,0 240.63,24.69 319.92,73.78 78.95,49.09 135.94,124.1 170.6,224.67zm-9221.64 1385.04l561 0c126.39,0 222.65,8.13 289.19,24.69 89.18,22.26 165.62,62.01 228.98,119.23 63.74,56.95 112.22,126.8 145.46,209.31 32.94,82.85 49.61,184.61 49.61,305.98 0,106.34 -15.59,198.18 -46.72,275.25 -37.88,93.97 -92.06,170.19 -162.81,228.3 -53.13,44.25 -125,78.61 -215.56,103.3 -67.6,18.36 -158.24,27.39 -271.84,27.39l-577.3 0 0 -1293.46zm306.92 218.94l0 856.49 228.98 0c85.66,0 147.56,-3.93 185.81,-12.37 49.57,-10.53 90.98,-28.29 123.88,-53.58 32.94,-25.29 59.46,-67.18 80.34,-125 20.53,-57.82 31.14,-136.73 31.14,-237 0,-99.97 -10.6,-176.48 -31.14,-230.1 -20.87,-53.58 -49.87,-95.44 -87.04,-125.26 -37.51,-30.13 -84.94,-50.28 -142.27,-60.85 -42.87,-8.43 -126.76,-12.33 -252.02,-12.33l-137.66 0zm1225.68 10.53l0 -229.47 291.29 0 0 229.47 -291.29 0zm0 1064l0 -936.9 291.29 0 0 936.9 -291.29 0zm562.76 61.75l333.03 34.32c5.7,33.12 18.44,55.72 38.26,68.05 27.58,17.8 71.16,26.53 130.58,26.53 76.1,0 133.09,-9.67 171.31,-29.23 25.52,-12.96 44.96,-33.72 58.04,-62.65 8.84,-20.46 13.49,-58.42 13.49,-113.83l0 -136.73c-87.08,101.21 -197.17,151.79 -329.88,151.79 -147.97,0 -265.1,-53.32 -351.47,-159.62 -67.6,-84.31 -101.58,-188.81 -101.58,-314.11 0,-157.19 44.59,-277.05 133.43,-360.16 88.84,-82.85 199.26,-124.4 331.27,-124.4 135.94,0 248.46,50.92 336.97,152.69l0 -131.29 272.52 0 0 840.82c0,110.54 -10.6,193.04 -32.19,247.86 -21.25,54.82 -51.3,97.57 -89.89,128.9 -38.93,31.03 -90.6,55.42 -155.05,73.18 -64.79,17.46 -146.51,26.49 -245.28,26.49 -186.86,0 -319.24,-27.39 -397.14,-81.61 -78.2,-54.52 -117.13,-123.46 -117.13,-206.91 0,-8.43 0.34,-18.36 0.71,-30.09zm260.53 -549.61c0,99.37 22.63,172.25 67.93,218.34 45.34,46.05 100.91,69.24 167.45,69.24 71.12,0 131.26,-23.79 180.49,-71.08 48.82,-47.25 73.59,-117.43 73.59,-210.51 0,-96.97 -23.68,-168.95 -70.78,-215.94 -46.72,-47.25 -106.15,-70.74 -178.02,-70.74 -70.07,0 -127.4,23.19 -172.74,69.24 -45.3,46.39 -67.93,116.57 -67.93,211.44zm1063.92 -576.14l0 -229.47 291.33 0 0 229.47 -291.33 0zm0 1064l0 -936.9 291.33 0 0 936.9 -291.33 0zm1094.72 -936.9l0 197.54 -198.89 0 0 377.66c0,76.51 1.8,121.07 5.66,133.73 3.9,12.63 12.4,22.89 25.85,31.32 13.45,8.13 30.09,12.33 49.2,12.33 27.24,0 66.17,-8.13 117.13,-23.79l25.14 192.15c-67.93,24.69 -144.37,37.06 -230.4,37.06 -52.38,0 -99.82,-7.53 -141.94,-22.29 -42.12,-15.06 -72.92,-34.62 -92.74,-58.42 -19.82,-23.79 -33.27,-56.02 -41.07,-96.67 -6,-28.63 -9.18,-87.04 -9.18,-174.68l0 -408.38 -133.81 0 0 -197.54 133.81 0 0 -186.11 292.34 -144.86 0 330.97 198.89 0zm420.19 285.78l-264.43 -40.65c29.75,-90.64 80.75,-157.49 153.25,-201.18 72.58,-43.35 180.53,-65.35 323.52,-65.35 130.25,0 226.88,13.26 290.58,39.46 63.4,26.19 108.36,59.31 134.14,99.67 25.85,40.36 38.93,114.17 38.93,221.97l-3.15 289.42c0,82.21 4.61,143.06 14.16,182.18 9.14,38.86 26.87,81.01 52.35,125.6l-288.44 0c-7.42,-16.56 -16.97,-40.95 -27.95,-73.18 -4.61,-14.76 -8.13,-24.39 -10.27,-29.23 -49.91,41.25 -103,71.98 -159.62,92.78 -56.62,20.46 -117.17,30.73 -181.58,30.73 -113.27,0 -202.82,-26.23 -267.95,-78.31 -65.5,-52.42 -98.02,-118.67 -98.02,-198.78 0,-52.68 14.88,-99.97 44.59,-141.52 29.71,-41.55 71.49,-73.18 124.92,-95.17 53.47,-21.99 130.99,-41.25 231.83,-57.82 135.94,-21.7 230.44,-42.15 282.82,-60.85l0 -24.69c0,-47.89 -13.79,-81.61 -41.4,-102.11 -27.62,-20.16 -79.66,-30.39 -156.47,-30.39 -52.01,0 -92.33,8.73 -121.4,26.19 -29.04,17.16 -52.38,47.59 -70.41,91.24zm389.69 201.18c-37.17,10.57 -96.3,23.19 -177.35,37.96 -80.67,14.76 -133.43,29.23 -158.54,43.05 -37.88,23.19 -56.99,52.12 -56.99,87.34 0,34.92 15.18,64.75 45.68,90.04 30.43,25.29 68.98,37.96 116.08,37.96 52.72,0 102.63,-14.76 150.4,-43.95 35.37,-22.29 58.42,-49.72 69.39,-82.25 7.79,-21.06 11.32,-61.41 11.32,-120.77l0 -49.39zm573.74 449.94l0 -1293.46 291.33 0 0 1293.46 -291.33 0zm-4552.44 1860.83l-176.22 191.25c-86.41,-35.82 -169.21,-85.21 -248.88,-148.16 -61.56,46.99 -126.69,81.91 -196.04,104.2 -69.06,22.26 -151.15,33.42 -246.7,33.42 -189.37,0 -331.65,-45.19 -427.19,-135.83 -74,-69.88 -110.8,-150.59 -110.8,-241.83 0,-82.81 29,-157.52 87.04,-223.47 58.04,-66.25 144.75,-123.76 260.15,-172.55 -51.67,-52.42 -90.94,-102.41 -117.17,-149.69 -26.19,-47.25 -39.27,-92.14 -39.27,-134.59 0,-78.01 36.83,-144.56 110.46,-198.78 73.59,-54.52 178.32,-81.61 314.63,-81.61 131.33,0 233.92,28.59 307.89,85.54 74,56.92 110.8,126.76 111.17,208.97 -0.37,52.42 -18.4,102.11 -55.23,149.09 -36.46,47.29 -110.39,100.27 -221.9,159.92l211.63 237.3c24.81,-37.66 46.39,-86.74 64.45,-147.26l263.34 50.88c-26.57,79.51 -49.24,137.63 -68.72,174.38 -19.11,36.72 -39.98,67.45 -61.9,92.14 32.19,25.89 74.34,54.22 125.97,85.24 51.37,31.03 89.22,51.18 113.27,61.41zm-793.2 -703.2l78.95 -51.18c58.04,-38.26 87.08,-76.21 87.08,-113.83 0,-31.92 -14.2,-59.05 -42.12,-81.31 -27.95,-22.29 -65.83,-33.42 -113.61,-33.42 -46.01,0 -82.47,9.93 -108.66,29.49 -26.23,19.6 -39.64,42.49 -39.64,68.38 0,30.73 22.29,67.75 66.55,111.1l71.46 70.78zm-113.95 268.96c-67.26,28.89 -117.17,63.51 -150.4,104.2 -33.27,40.65 -49.95,81.91 -49.95,124.36 0,53.62 20.95,97.27 61.98,130.99 41.03,33.72 96.26,50.58 165.28,50.58 45.64,0 89.55,-7.49 131.67,-22.86 42.12,-15.06 88.09,-40.36 138.04,-75.91l-296.61 -311.37zm1676.63 592.06l0 -1293.46 306.88 0 0 1293.46 -306.88 0zm1599.1 0l-291.29 0 0 -478.23c0,-101.21 -6.41,-166.55 -18.77,-196.38 -12.37,-29.49 -32.9,-52.68 -60.85,-69.24 -27.95,-16.26 -61.6,-24.69 -100.91,-24.69 -50.58,0 -95.89,11.73 -135.87,35.22 -40.06,23.79 -67.6,54.82 -82.51,93.67 -14.88,38.86 -22.26,110.5 -22.26,215.3l0 424.35 -291.33 0 0 -936.9 270.38 0 0 137.63c96.34,-106 217.33,-159.02 363.2,-159.02 64.04,0 123.16,9.93 176.22,29.83 53.13,19.56 93.45,44.55 120.73,75.28 27.24,30.73 46.35,65.35 56.95,104.2 10.98,38.86 16.3,94.27 16.3,166.55l0 582.43zm167.79 -936.9l161.76 0 0 -70.78c0,-78.61 9.89,-137.63 29.71,-176.48 19.82,-38.86 55.94,-70.48 108.66,-94.87 53.09,-24.39 119.98,-36.42 200.65,-36.42 83.18,0 164.27,10.53 243.89,31.62l-39.27 173.15c-46.39,-9.63 -91.01,-14.13 -133.81,-14.13 -42.49,0 -72.58,8.13 -90.98,24.99 -18.4,16.86 -27.24,49.09 -27.24,96.67l0 66.25 217.66 0 0 194.84 -217.66 0 0 742.05 -291.63 0 0 -742.05 -161.76 0 0 -194.84zm767.35 455.03c0,-82.21 24.06,-162.02 71.53,-239.1 47.77,-76.81 115.37,-135.83 202.79,-176.18 87.42,-40.65 185.1,-61.15 293.05,-61.15 166.33,0 302.98,46.09 409.51,138.23 106.53,92.18 159.66,208.41 159.66,349.07 0,141.52 -53.84,258.99 -161.05,352.33 -107.61,93.37 -242.84,139.76 -405.99,139.76 -101.24,0 -197.17,-19.3 -288.82,-58.15 -91.69,-38.82 -161.38,-95.74 -209.16,-170.75 -47.47,-74.98 -71.53,-166.22 -71.53,-274.05zm298.71 13.26c0,93.04 25.85,164.12 77.9,213.5 51.67,49.42 115.74,74.12 191.85,74.12 76.06,0 139.8,-24.69 191.1,-74.12 51.71,-49.39 77.15,-121.07 77.15,-215.3 0,-91.58 -25.44,-162.32 -77.15,-211.74 -51.3,-49.39 -115.03,-74.08 -191.1,-74.08 -76.1,0 -140.17,24.69 -191.85,74.08 -52.05,49.42 -77.9,120.77 -77.9,213.54zm1345.02 468.6l-291.29 0 0 -936.9 270.38 0 0 133.09c46.39,-62.91 88.17,-104.5 124.92,-124.36 37.17,-19.9 78.99,-30.13 126.05,-30.13 66.55,0 130.25,15.66 191.81,46.99l-90.26 215.94c-48.82,-26.83 -94.46,-40.36 -136.62,-40.36 -41.03,0 -75.39,9.33 -103.68,28.59 -28.66,19 -50.96,53.62 -66.92,103.6 -16.26,49.98 -24.39,154.79 -24.39,314.11l0 289.42zm525.59 -936.9l268.62 0 0 127.7c95.92,-99.41 210.62,-149.09 343.34,-149.09 70.44,0 131.67,12.37 183.38,37.06 52.01,24.69 94.5,62.01 127.73,112.03 48.15,-50.02 100.53,-87.34 156.47,-112.03 55.91,-24.69 115.71,-37.06 179.44,-37.06 80.67,0 149.32,14.16 205.26,42.15 55.94,27.73 97.72,68.98 125.3,122.9 20.2,40.06 30.13,104.8 30.13,194.24l0 598.99 -291.33 0 0 -535.44c0,-93.08 -9.89,-152.99 -30.09,-180.12 -26.9,-35.22 -68.27,-52.98 -124.21,-52.98 -41.1,0 -79.32,10.53 -115.41,31.92 -35.75,21.06 -61.56,52.08 -77.53,93.04 -15.89,40.95 -24.06,105.4 -24.06,193.64l0 449.94 -291.29 0 0 -513.49c0,-91.24 -5.32,-149.95 -15.59,-176.48 -10.27,-26.49 -26.53,-46.05 -48.15,-59.02 -21.92,-12.93 -51.3,-19.56 -88.8,-19.56 -44.96,0 -85.32,10.23 -121.07,31.03 -36.12,20.46 -61.9,50.28 -77.49,89.14 -15.59,38.82 -23.34,102.97 -23.34,193.04l0 455.33 -291.33 0 0 -936.9zm2127.88 285.78l-264.39 -40.65c29.71,-90.64 80.71,-157.49 153.25,-201.18 72.58,-43.35 180.49,-65.35 323.52,-65.35 130.25,0 226.88,13.26 290.58,39.46 63.36,26.19 108.33,59.31 134.14,99.67 25.85,40.36 38.93,114.17 38.93,221.97l-3.18 289.42c0,82.21 4.65,143.06 14.2,182.18 9.14,38.86 26.87,81.01 52.35,125.6l-288.44 0c-7.42,-16.56 -16.97,-40.95 -27.95,-73.18 -4.65,-14.76 -8.17,-24.39 -10.27,-29.23 -49.95,41.25 -103,71.98 -159.62,92.78 -56.65,20.46 -117.21,30.73 -181.58,30.73 -113.27,0 -202.82,-26.23 -267.95,-78.31 -65.5,-52.42 -98.06,-118.67 -98.06,-198.78 0,-52.68 14.91,-99.97 44.63,-141.52 29.71,-41.55 71.46,-73.18 124.92,-95.17 53.47,-21.99 130.96,-41.25 231.83,-57.82 135.94,-21.7 230.44,-42.15 282.79,-60.85l0 -24.69c0,-47.89 -13.75,-81.61 -41.37,-102.11 -27.62,-20.16 -79.66,-30.39 -156.47,-30.39 -52.01,0 -92.36,8.73 -121.4,26.19 -29.04,17.16 -52.38,47.59 -70.44,91.24zm389.69 201.18c-37.17,10.57 -96.26,23.19 -177.31,37.96 -80.71,14.76 -133.47,29.23 -158.54,43.05 -37.88,23.19 -56.99,52.12 -56.99,87.34 0,34.92 15.18,64.75 45.68,90.04 30.43,25.29 68.98,37.96 116.08,37.96 52.68,0 102.63,-14.76 150.4,-43.95 35.37,-22.29 58.42,-49.72 69.36,-82.25 7.79,-21.06 11.32,-61.41 11.32,-120.77l0 -49.39zm1078.5 -486.96l0 197.54 -198.93 0 0 377.66c0,76.51 1.8,121.07 5.7,133.73 3.86,12.63 12.37,22.89 25.85,31.32 13.41,8.13 30.05,12.33 49.16,12.33 27.28,0 66.21,-8.13 117.17,-23.79l25.14 192.15c-67.97,24.69 -144.41,37.06 -230.4,37.06 -52.42,0 -99.86,-7.53 -141.94,-22.29 -42.15,-15.06 -72.95,-34.62 -92.74,-58.42 -19.82,-23.79 -33.31,-56.02 -41.1,-96.67 -6,-28.63 -9.14,-87.04 -9.14,-174.68l0 -408.38 -133.84 0 0 -197.54 133.84 0 0 -186.11 292.3 -144.86 0 330.97 198.93 0zm202.49 -127.1l0 -229.47 291.29 0 0 229.47 -291.29 0zm0 1064l0 -936.9 291.29 0 0 936.9 -291.29 0zm522.41 -481.86c0,-82.21 24.06,-162.02 71.53,-239.1 47.77,-76.81 115.37,-135.83 202.79,-176.18 87.42,-40.65 185.06,-61.15 293.05,-61.15 166.33,0 302.98,46.09 409.51,138.23 106.53,92.18 159.62,208.41 159.62,349.07 0,141.52 -53.81,258.99 -161.05,352.33 -107.58,93.37 -242.8,139.76 -405.95,139.76 -101.24,0 -197.17,-19.3 -288.82,-58.15 -91.69,-38.82 -161.38,-95.74 -209.16,-170.75 -47.47,-74.98 -71.53,-166.22 -71.53,-274.05zm298.71 13.26c0,93.04 25.85,164.12 77.9,213.5 51.63,49.42 115.71,74.12 191.81,74.12 76.1,0 139.84,-24.69 191.13,-74.12 51.71,-49.39 77.15,-121.07 77.15,-215.3 0,-91.58 -25.44,-162.32 -77.15,-211.74 -51.3,-49.39 -115.03,-74.08 -191.13,-74.08 -76.1,0 -140.17,24.69 -191.81,74.08 -52.05,49.42 -77.9,120.77 -77.9,213.54zm2067.78 468.6l-291.33 0 0 -478.23c0,-101.21 -6.37,-166.55 -18.73,-196.38 -12.4,-29.49 -32.9,-52.68 -60.89,-69.24 -27.95,-16.26 -61.6,-24.69 -100.87,-24.69 -50.62,0 -95.92,11.73 -135.9,35.22 -40.02,23.79 -67.6,54.82 -82.47,93.67 -14.91,38.86 -22.29,110.5 -22.29,215.3l0 424.35 -291.29 0 0 -936.9 270.38 0 0 137.63c96.3,-106 217.33,-159.02 363.16,-159.02 64.04,0 123.16,9.93 176.26,29.83 53.09,19.56 93.45,44.55 120.69,75.28 27.28,30.73 46.39,65.35 56.99,104.2 10.94,38.86 16.3,94.27 16.3,166.55l0 582.43zm-13582.95 1597.94l298.75 -24.69c17.65,85.21 54.11,147.86 109.34,187.91 54.86,39.76 128.86,59.95 222.31,59.95 98.73,0 173.41,-17.8 223.28,-53.32 50.25,-35.86 75.39,-77.41 75.39,-125 0,-30.69 -10.6,-56.62 -31.81,-77.97 -20.87,-21.7 -57.7,-40.36 -110.46,-56.02 -35.75,-10.87 -117.84,-29.53 -245.65,-56.62 -164.57,-34.66 -279.94,-77.41 -346.11,-128 -93.45,-71.08 -140.17,-157.82 -140.17,-260.19 0,-65.98 21.92,-127.4 65.83,-184.91 43.88,-57.22 107.24,-100.91 189.71,-131.03 82.85,-29.79 182.25,-44.85 299.05,-44.85 191.17,0 334.53,35.52 431.13,106.6 96.26,71.38 146.88,166.25 151.87,285.18l-306.88 11.47c-13.11,-66.55 -41.44,-114.43 -84.57,-143.36 -43.2,-29.19 -107.99,-43.65 -194.36,-43.65 -89.18,0 -159.28,15.36 -209.53,46.69 -32.52,19.86 -48.82,46.65 -48.82,80.07 0,30.73 15.18,56.95 45.68,78.61 38.56,27.73 132.72,56.62 282.04,86.44 149.39,30.13 259.82,61.11 331.31,93.04 71.49,32.22 127.44,75.91 168.13,131.63 40.32,55.72 60.51,124.36 60.51,205.97 0,74.08 -24.06,143.66 -72.54,208.11 -48.49,64.75 -116.83,112.93 -205.3,144.26 -88.47,31.62 -198.93,47.29 -330.93,47.29 -192.18,0 -339.81,-37.66 -442.74,-113.23 -103,-75.61 -164.64,-185.81 -184.43,-330.37zm1354.16 -516.19l310.03 0 263.34 665.24 257.31 -665.24 301.6 0 -388.64 901.68 -69.73 163.22c-25.48,54.52 -49.91,96.37 -72.92,125.26 -23.38,28.93 -49.87,52.12 -80,70.18 -30.09,17.76 -66.88,31.92 -110.76,41.85 -43.91,9.97 -93.45,15.06 -149.02,15.06 -55.94,0 -110.8,-5.1 -164.94,-15.06l-25.82 -194.24c45.64,7.83 86.71,11.47 123.5,11.47 67.6,0 117.84,-16.86 150.44,-50.62 32.19,-33.72 57.33,-76.78 74.68,-129.2l-419.06 -939.6zm1216.5 669.47l292.38 -37.96c12.37,48.19 37.51,84.94 75.73,109.94 37.88,24.99 90.98,37.62 159.62,37.62 75.43,0 132.04,-11.73 169.93,-35.52 25.85,-16.26 38.56,-38.56 38.56,-65.95 0,-18.96 -7.08,-34.62 -20.87,-46.99 -14.54,-11.73 -47.06,-22.59 -97.35,-32.52 -235.01,-43.95 -384.03,-84.31 -447.05,-120.77 -87.04,-50.58 -130.55,-121.07 -130.55,-211.11 0,-81.01 37.47,-149.39 112.86,-204.47 75.39,-55.42 192.22,-83.15 350.42,-83.15 150.78,0 262.96,21.1 336.25,62.65 73.29,41.85 123.54,103.6 151.12,185.51l-274.65 43.05c-11.65,-36.42 -33.99,-64.45 -66.88,-83.71 -32.94,-19.56 -79.66,-29.23 -140.51,-29.23 -76.81,0 -131.67,9.03 -164.94,27.43 -21.96,12.93 -32.94,29.79 -32.94,50.28 0,17.76 9.55,32.52 29.04,44.89 26.19,16.56 116.79,39.72 272.18,69.84 155.01,29.83 263.34,66.85 324.9,110.24 60.93,44.25 91.35,105.7 91.35,184.31 0,85.81 -42.15,159.88 -126.76,221.63 -84.19,61.75 -208.82,92.48 -374.1,92.48 -150.07,0 -268.62,-25.93 -356.41,-77.71 -87.42,-51.48 -144.41,-121.96 -171.31,-210.81zm1788.48 -669.47l0 197.54 -198.89 0 0 377.66c0,76.51 1.8,121.07 5.66,133.73 3.9,12.63 12.37,22.89 25.85,31.32 13.45,8.13 30.09,12.33 49.2,12.33 27.24,0 66.17,-8.13 117.13,-23.79l25.14 192.15c-67.93,24.69 -144.41,37.06 -230.4,37.06 -52.38,0 -99.82,-7.53 -141.94,-22.29 -42.12,-15.06 -72.92,-34.62 -92.74,-58.42 -19.82,-23.79 -33.27,-56.02 -41.07,-96.67 -6,-28.63 -9.18,-87.04 -9.18,-174.68l0 -408.38 -133.81 0 0 -197.54 133.81 0 0 -186.11 292.34 -144.86 0 330.97 198.89 0zm839.93 638.75l290.62 41.25c-37.51,90.64 -96.26,159.62 -177.01,206.91 -80.3,47.59 -181.2,71.08 -302.27,71.08 -191.47,0 -333.03,-53.02 -425.02,-159.62 -72.58,-85.24 -109.04,-193.04 -109.04,-322.84 0,-155.39 47.77,-277.09 143.32,-364.99 95.21,-87.94 215.94,-131.93 361.73,-131.93 163.89,0 293.05,46.09 387.93,138.23 94.5,92.18 139.8,233.1 135.94,423.15l-730.18 0c2.1,73.48 25.44,130.7 70.41,171.35 44.96,40.95 101.24,61.45 168.13,61.45 45.68,0 83.9,-10.57 115.03,-31.62 31.14,-21.4 54.86,-55.42 70.41,-102.41zm16.67 -250.56c-2.14,-71.98 -23.72,-126.5 -65.16,-163.82 -41.37,-37.36 -91.99,-56.02 -151.49,-56.02 -63.66,0 -116.08,19.86 -157.45,59.31 -41.82,39.16 -61.98,92.78 -61.26,160.52l435.36 0zm505.09 -388.19l268.62 0 0 127.7c95.92,-99.41 210.58,-149.09 343.3,-149.09 70.48,0 131.71,12.37 183.38,37.06 52.01,24.69 94.5,62.01 127.77,112.03 48.11,-50.02 100.53,-87.34 156.47,-112.03 55.91,-24.69 115.71,-37.06 179.44,-37.06 80.67,0 149.32,14.16 205.26,42.15 55.91,27.73 97.72,68.98 125.26,122.9 20.23,40.06 30.13,104.8 30.13,194.24l0 598.99 -291.29 0 0 -535.44c0,-93.08 -9.93,-152.99 -30.09,-180.12 -26.9,-35.22 -68.31,-52.98 -124.21,-52.98 -41.1,0 -79.32,10.53 -115.44,31.92 -35.71,21.06 -61.56,52.08 -77.49,93.04 -15.92,40.95 -24.06,105.4 -24.06,193.64l0 449.94 -291.29 0 0 -513.49c0,-91.24 -5.36,-149.95 -15.59,-176.48 -10.27,-26.49 -26.53,-46.05 -48.15,-59.02 -21.92,-12.93 -51.3,-19.56 -88.8,-19.56 -44.96,0 -85.32,10.23 -121.07,31.03 -36.12,20.46 -61.94,50.28 -77.53,89.14 -15.59,38.82 -23.34,102.97 -23.34,193.04l0 455.33 -291.29 0 0 -936.9zm1807.55 669.47l292.38 -37.96c12.37,48.19 37.51,84.94 75.73,109.94 37.88,24.99 90.98,37.62 159.66,37.62 75.39,0 132.01,-11.73 169.89,-35.52 25.85,-16.26 38.56,-38.56 38.56,-65.95 0,-18.96 -7.08,-34.62 -20.87,-46.99 -14.54,-11.73 -47.06,-22.59 -97.35,-32.52 -235.01,-43.95 -384.03,-84.31 -447.05,-120.77 -87.04,-50.58 -130.55,-121.07 -130.55,-211.11 0,-81.01 37.47,-149.39 112.86,-204.47 75.39,-55.42 192.22,-83.15 350.42,-83.15 150.78,0 262.96,21.1 336.25,62.65 73.29,41.85 123.54,103.6 151.15,185.51l-274.69 43.05c-11.65,-36.42 -33.99,-64.45 -66.88,-83.71 -32.94,-19.56 -79.66,-29.23 -140.51,-29.23 -76.81,0 -131.67,9.03 -164.94,27.43 -21.96,12.93 -32.94,29.79 -32.94,50.28 0,17.76 9.55,32.52 29.04,44.89 26.19,16.56 116.79,39.72 272.18,69.84 155.01,29.83 263.34,66.85 324.9,110.24 60.93,44.25 91.35,105.7 91.35,184.31 0,85.81 -42.15,159.88 -126.76,221.63 -84.19,61.75 -208.82,92.48 -374.06,92.48 -150.1,0 -268.66,-25.93 -356.45,-77.71 -87.42,-51.48 -144.41,-121.96 -171.31,-210.81z"/>
   <polygon class="fil3" points="19563.18,3490.85 19951.15,3490.85 19951.15,2818.64 18250.76,2818.64 18250.76,3490.85 18524.97,3490.85 19670.84,6698.72 20642.2,6698.72 21788.07,3490.85 22062.24,3490.85 22062.24,2818.64 20361.86,2818.64 20361.86,3490.85 20783.54,3490.85 20183.01,5518.38 "/>
   <path class="fil3" d="M24798.85 2853.48c816.28,266.97 1377.69,1028.21 1382.98,1896.13 5.51,909.47 -600.87,1709.08 -1478.11,1949.11l-1879.27 0 -481.08 0 0 -741.15 483.14 0 0 -2465.44 -462.87 0 0 -673.48 508.47 0c375.34,0 1654.97,-54.11 1926.74,34.85zm-1043.35 638.64l-2.14 1302.64 -1.87 1162.8c1672.96,212.19 1899.39,-1996.47 609.11,-2407.33 -174.12,-55.42 -375.56,-78.54 -605.1,-58.12z"/>
   <path class="fil2 str0" d="M29280.18 3931.3c0,-260.15 99.11,-486.13 295.53,-677.94 197.28,-191.85 499.96,-287.28 908.08,-287.28 436.97,0 767.61,109.49 992.8,328.46 197.32,191.81 295.53,417.75 295.53,677.01l-684.65 0c0,-308.38 -232.73,-594.72 -561.3,-594.72 -705.63,0 -658.42,816.96 -295.53,964.4 325.54,132.34 690.12,294.29 1098.24,472.05 112.6,41.18 217.96,109.49 316.17,205.86 154.98,150.67 232.46,328.42 232.46,533.38 0,274.17 -98.21,506.29 -295.49,698.1 -210.84,204.96 -555.87,308.3 -1034.24,308.3 -464.89,0 -823.44,-123.5 -1077.48,-369.6 -182.89,-177.79 -273.9,-437.95 -273.9,-780.42l679.18 0c0,434.5 219.65,759.36 692.93,759.36 556.43,0 674.05,-386.39 599.59,-694.09 -91.61,-378.71 -463.13,-460.24 -789.68,-598.66 -253.18,-109.49 -457.66,-198.85 -612.63,-267.16 -112.6,-41.18 -210.81,-102.48 -295.49,-184.84 -126.12,-123.46 -190.12,-287.24 -190.12,-492.2z"/>
   <path class="fil4" d="M27414.66 7696.99c-306.8,56.69 -647.33,273.94 -1021.54,651.86 1.95,-531.85 -85.66,-926.14 -262.85,-1182.96 400.85,-1177.83 1798.44,-516.6 1284.39,531.1z"/>
   <path class="fil5" style="mask:url(#id0)" d="M27414.66 7696.99c-306.8,56.69 -647.33,273.94 -1021.54,651.86 1.95,-531.85 -85.66,-926.14 -262.85,-1182.96 400.85,-1177.83 1798.44,-516.6 1284.39,531.1z"/>
   <path class="fil6" d="M28578.03 2426.36c-330.56,197.54 -626.95,430.34 -889.46,697.16 554.25,-29.56 794.36,76.93 1065.42,393.1 -29.83,-350.08 -88.39,-713.46 -175.96,-1090.26zm-889.46 697.16c-815.31,828.61 -1302.9,1986.2 -1464.59,3442.62 485.16,221.86 983.96,393.43 1496.4,514.72 808.56,-973.24 1153.02,-2161.34 1033.61,-3564.17l0 -0.07c-271.06,-316.17 -511.16,-422.66 -1065.42,-393.1z"/>
   <g>
    <path class="fil7" d="M27777 4101.01c238.76,0 432.33,193.57 432.33,432.33 0,238.76 -193.57,432.33 -432.33,432.33 -238.76,0 -432.33,-193.57 -432.33,-432.33 0,-238.76 193.57,-432.33 432.33,-432.33z"/>
    <path id="_1" class="fil8" d="M27777 3913.66c171.09,0 326.06,69.43 438.17,181.54 112.15,112.15 181.5,267.05 181.5,438.14 0,171.05 -69.36,326.03 -181.5,438.17 -112.15,112.15 -267.12,181.5 -438.17,181.5 -171.09,0 -325.99,-69.36 -438.14,-181.5 -112.11,-112.11 -181.54,-267.09 -181.54,-438.17 0,-171.09 69.43,-326.03 181.54,-438.14 112.11,-112.11 267.05,-181.54 438.14,-181.54zm0 187.35c238.76,0 432.33,193.57 432.33,432.33 0,238.76 -193.57,432.33 -432.33,432.33 -238.76,0 -432.33,-193.57 -432.33,-432.33 0,-238.76 193.57,-432.33 432.33,-432.33z"/>
   </g>
   <path class="fil9" d="M26409.01 5519.77l-152.39 803.54c-356.75,19.11 -739.02,184.99 -1146.8,497.53 30.13,-756.22 463.2,-1189.93 1299.19,-1301.07z"/>
   <path class="fil9" d="M28313.98 6165.18l-422.06 700.54c253.15,252.06 427.49,630.54 523.12,1135.34 481.68,-583.74 447.99,-1195.74 -101.06,-1835.88z"/>
   <polygon class="fil9" points="26720.01,7388.95 27080.1,6901.17 27211.43,5889.14 26727.17,6776.39 "/>
   <path class="fil9" d="M28578.03 2426.36c83.18,350.61 141.9,714.06 176.07,1090.37 -271.13,-316.28 -511.28,-422.81 -1065.79,-393.21 306.65,-300.58 603.23,-532.97 889.72,-697.16z"/>
  </g>
 </g>
</svg>
