<?xml version="1.0" encoding="UTF-8"?>
<!DOCTYPE svg PUBLIC "-//W3C//DTD SVG 1.1//EN" "http://www.w3.org/Graphics/SVG/1.1/DTD/svg11.dtd">
<!-- Creator: CorelDRAW -->
<svg xmlns="http://www.w3.org/2000/svg" xml:space="preserve" width="42.3333mm" height="42.3334mm" version="1.1" style="shape-rendering:geometricPrecision; text-rendering:geometricPrecision; image-rendering:optimizeQuality; fill-rule:evenodd; clip-rule:evenodd"
viewBox="0 0 416.83 416.83"
 xmlns:xlink="http://www.w3.org/1999/xlink"
 xmlns:xodm="http://www.corel.com/coreldraw/odm/2003">
 <defs>
  <style type="text/css">
   <![CDATA[
    .fil3 {fill:#FEFEFE}
    .fil5 {fill:#274454}
    .fil4 {fill:#3ABED7}
    .fil0 {fill:#4A22A9}
    .fil6 {fill:#E72325}
    .fil1 {fill:url(#id2)}
    .fil2 {fill:url(#id3)}
   ]]>
  </style>
    <mask id="id0">
  <radialGradient id="id1" gradientUnits="userSpaceOnUse" cx="160.34" cy="276.55" r="0" fx="160.34" fy="276.55">
   <stop offset="0" style="stop-opacity:1; stop-color:white"/>
   <stop offset="0.611765" style="stop-opacity:0.501961; stop-color:white"/>
   <stop offset="1" style="stop-opacity:0; stop-color:white"/>
  </radialGradient>
     <rect style="fill:url(#id1)" x="159.36" y="275.56" width="84.53" height="108.9"/>
    </mask>
  <radialGradient id="id2" gradientUnits="userSpaceOnUse" gradientTransform="matrix(0.94061 -0.0130122 0.0168085 1.21504 7 -65)" cx="209.88" cy="312.91" r="43.84" fx="209.88" fy="312.91">
   <stop offset="0" style="stop-opacity:1; stop-color:#FEFEFE"/>
   <stop offset="0.780392" style="stop-opacity:1; stop-color:#F9C299"/>
   <stop offset="1" style="stop-opacity:1; stop-color:#F58634"/>
  </radialGradient>
  <radialGradient id="id3" gradientUnits="userSpaceOnUse" gradientTransform="matrix(0.820537 -0.0113511 0.0146628 1.05993 32 -16)" cx="204.1" cy="312.91" r="50.26" fx="204.1" fy="312.91">
   <stop offset="0" style="stop-opacity:1; stop-color:#F1E927"/>
   <stop offset="0.619608" style="stop-opacity:1; stop-color:#F5C73F"/>
   <stop offset="1" style="stop-opacity:1; stop-color:#F9A656"/>
  </radialGradient>
 </defs>
 <g id="Camada_x0020_1">
  <metadata id="CorelCorpID_0Corel-Layer"/>
  <rect class="fil0" x="-0" width="416.83" height="416.83" rx="100.04" ry="100.04"/>
  <g id="_2382456937536">
   <path class="fil1" d="M236.27 344.95c-18.14,3.35 -38.27,16.19 -60.39,38.54 0.12,-31.44 -5.06,-54.76 -15.54,-69.94 23.7,-69.63 106.32,-30.54 75.93,31.4z"/>
   <path class="fil2" style="mask:url(#id0)" d="M236.27 344.95c-18.14,3.35 -38.27,16.19 -60.39,38.54 0.12,-31.44 -5.06,-54.76 -15.54,-69.94 23.7,-69.63 106.32,-30.54 75.93,31.4z"/>
   <path class="fil3" d="M305.05 33.35c-19.54,11.68 -37.06,25.44 -52.58,41.22 32.77,-1.75 46.96,4.55 62.99,23.24 -1.76,-20.7 -5.23,-42.18 -10.4,-64.46zm-52.58 41.22c-48.2,48.99 -77.03,117.43 -86.59,203.53 28.68,13.12 58.17,23.26 88.47,30.43 47.8,-57.54 68.17,-127.78 61.11,-210.71l0 -0c-16.02,-18.69 -30.22,-24.99 -62.99,-23.24z"/>
   <g>
    <path class="fil4" d="M257.69 132.35c14.11,0 25.56,11.44 25.56,25.56 0,14.12 -11.44,25.56 -25.56,25.56 -14.12,0 -25.56,-11.44 -25.56,-25.56 0,-14.11 11.44,-25.56 25.56,-25.56z"/>
    <path id="_1" class="fil5" d="M257.69 127.43c8.42,0 16.04,3.41 21.55,8.93 5.51,5.52 8.93,13.14 8.93,21.55 0,8.42 -3.41,16.04 -8.93,21.55 -5.52,5.51 -13.14,8.93 -21.55,8.93 -8.42,0 -16.04,-3.41 -21.55,-8.93 -5.51,-5.51 -8.93,-13.14 -8.93,-21.55 0,-8.42 3.41,-16.04 8.93,-21.55 5.52,-5.51 13.14,-8.93 21.55,-8.93zm0 4.92c14.11,0 25.56,11.44 25.56,25.56 0,14.12 -11.44,25.56 -25.56,25.56 -14.12,0 -25.56,-11.44 -25.56,-25.56 0,-14.11 11.44,-25.56 25.56,-25.56z"/>
   </g>
   <path class="fil6" d="M176.82 216.23l-9.01 47.5c-21.09,1.13 -43.69,10.94 -67.8,29.41 1.78,-44.71 27.38,-70.35 76.81,-76.92z"/>
   <path class="fil6" d="M289.44 254.39l-24.95 41.42c14.97,14.9 25.27,37.28 30.93,67.12 28.48,-34.51 26.48,-70.69 -5.97,-108.54z"/>
   <polygon class="fil6" points="195.21,326.73 216.49,297.9 224.26,238.06 195.63,290.52 "/>
   <path class="fil6" d="M305.05 33.35c4.92,20.73 8.39,42.22 10.41,64.46 -16.03,-18.7 -30.23,-25 -63.01,-23.25 18.13,-17.77 35.66,-31.51 52.6,-41.22z"/>
  </g>
 </g>
</svg>
