<?xml version="1.0" encoding="UTF-8"?>
<!DOCTYPE svg PUBLIC "-//W3C//DTD SVG 1.1//EN" "http://www.w3.org/Graphics/SVG/1.1/DTD/svg11.dtd">
<!-- Creator: CorelDRAW -->
<svg xmlns="http://www.w3.org/2000/svg" xml:space="preserve" width="42.3333mm" height="42.3334mm" version="1.1" style="shape-rendering:geometricPrecision; text-rendering:geometricPrecision; image-rendering:optimizeQuality; fill-rule:evenodd; clip-rule:evenodd"
viewBox="0 0 255.64 255.64"
 xmlns:xlink="http://www.w3.org/1999/xlink"
 xmlns:xodm="http://www.corel.com/coreldraw/odm/2003">
 <defs>
  <style type="text/css">
   <![CDATA[
    .fil3 {fill:#FEFEFE}
    .fil5 {fill:#274454}
    .fil4 {fill:#3ABED7}
    .fil0 {fill:#4A22A9}
    .fil6 {fill:#E72325}
    .fil1 {fill:url(#id2)}
    .fil2 {fill:url(#id3)}
   ]]>
  </style>
    <mask id="id0">
  <radialGradient id="id1" gradientUnits="userSpaceOnUse" cx="77.43" cy="170.84" r="0" fx="77.43" fy="170.84">
   <stop offset="0" style="stop-opacity:1; stop-color:white"/>
   <stop offset="0.611765" style="stop-opacity:0.501961; stop-color:white"/>
   <stop offset="1" style="stop-opacity:0; stop-color:white"/>
  </radialGradient>
     <rect style="fill:url(#id1)" x="76.82" y="170.24" width="51.84" height="66.79"/>
    </mask>
  <radialGradient id="id2" gradientUnits="userSpaceOnUse" gradientTransform="matrix(0.94061 -0.0130122 0.0168085 1.21504 3 -40)" cx="107.81" cy="193.14" r="26.89" fx="107.81" fy="193.14">
   <stop offset="0" style="stop-opacity:1; stop-color:#FEFEFE"/>
   <stop offset="0.780392" style="stop-opacity:1; stop-color:#F9C299"/>
   <stop offset="1" style="stop-opacity:1; stop-color:#F58634"/>
  </radialGradient>
  <radialGradient id="id3" gradientUnits="userSpaceOnUse" gradientTransform="matrix(0.820537 -0.0113511 0.0146628 1.05993 16 -10)" cx="104.26" cy="193.14" r="30.82" fx="104.26" fy="193.14">
   <stop offset="0" style="stop-opacity:1; stop-color:#F1E927"/>
   <stop offset="0.619608" style="stop-opacity:1; stop-color:#F5C73F"/>
   <stop offset="1" style="stop-opacity:1; stop-color:#F9A656"/>
  </radialGradient>
 </defs>
 <g id="Camada_x0020_1">
  <metadata id="CorelCorpID_0Corel-Layer"/>
  <rect class="fil0" x="-0" width="255.64" height="255.64" rx="61.35" ry="61.35"/>
  <g id="_1920501350448">
   <path class="fil1" d="M124 212.79c-11.12,2.05 -23.47,9.93 -37.04,23.63 0.07,-19.28 -3.11,-33.58 -9.53,-42.89 14.53,-42.71 65.21,-18.73 46.57,19.26z"/>
   <path class="fil2" style="mask:url(#id0)" d="M124 212.79c-11.12,2.05 -23.47,9.93 -37.04,23.63 0.07,-19.28 -3.11,-33.58 -9.53,-42.89 14.53,-42.71 65.21,-18.73 46.57,19.26z"/>
   <path class="fil3" d="M166.18 21.69c-11.98,7.16 -22.73,15.6 -32.25,25.28 20.1,-1.07 28.8,2.79 38.63,14.25 -1.08,-12.69 -3.2,-25.87 -6.38,-39.53zm-32.25 25.28c-29.56,30.04 -47.24,72.02 -53.1,124.82 17.59,8.04 35.68,14.27 54.26,18.66 29.32,-35.29 41.81,-78.36 37.48,-129.23l0 -0c-9.83,-11.46 -18.53,-15.32 -38.63,-14.25z"/>
   <g>
    <path class="fil4" d="M137.13 82.41c8.66,0 15.68,7.02 15.68,15.68 0,8.66 -7.02,15.68 -15.68,15.68 -8.66,0 -15.68,-7.02 -15.68,-15.68 0,-8.66 7.02,-15.68 15.68,-15.68z"/>
    <path id="_1" class="fil5" d="M137.13 79.39c5.16,0 9.84,2.09 13.22,5.48 3.38,3.38 5.48,8.06 5.48,13.22 0,5.16 -2.09,9.84 -5.48,13.22 -3.38,3.38 -8.06,5.48 -13.22,5.48 -5.16,0 -9.84,-2.09 -13.22,-5.48 -3.38,-3.38 -5.48,-8.06 -5.48,-13.22 0,-5.16 2.09,-9.84 5.48,-13.22 3.38,-3.38 8.06,-5.48 13.22,-5.48zm0 3.02c8.66,0 15.68,7.02 15.68,15.68 0,8.66 -7.02,15.68 -15.68,15.68 -8.66,0 -15.68,-7.02 -15.68,-15.68 0,-8.66 7.02,-15.68 15.68,-15.68z"/>
   </g>
   <path class="fil6" d="M87.53 133.85l-5.52 29.13c-12.94,0.69 -26.8,6.71 -41.58,18.04 1.09,-27.42 16.79,-43.14 47.11,-47.17z"/>
   <path class="fil6" d="M156.6 157.25l-15.3 25.4c9.18,9.14 15.5,22.86 18.97,41.17 17.46,-21.17 16.24,-43.35 -3.66,-66.56z"/>
   <polygon class="fil6" points="98.81,201.62 111.86,183.94 116.63,147.24 99.07,179.41 "/>
   <path class="fil6" d="M166.18 21.69c3.02,12.71 5.14,25.89 6.38,39.53 -9.83,-11.47 -18.54,-15.33 -38.64,-14.26 11.12,-10.9 21.87,-19.32 32.26,-25.28z"/>
  </g>
 </g>
</svg>
