<?xml version="1.0" encoding="UTF-8"?>
<!DOCTYPE svg PUBLIC "-//W3C//DTD SVG 1.1//EN" "http://www.w3.org/Graphics/SVG/1.1/DTD/svg11.dtd">
<!-- Creator: CorelDRAW -->
<svg xmlns="http://www.w3.org/2000/svg" xml:space="preserve" width="145.032mm" height="76.2mm" version="1.1" style="shape-rendering:geometricPrecision; text-rendering:geometricPrecision; image-rendering:optimizeQuality; fill-rule:evenodd; clip-rule:evenodd"
viewBox="0 0 1274.54 669.65"
 xmlns:xlink="http://www.w3.org/1999/xlink"
 xmlns:xodm="http://www.corel.com/coreldraw/odm/2003">
 <defs>
  <style type="text/css">
   <![CDATA[
    .fil0 {fill:#E6E7E8}
    .fil2 {fill:#FEFEFE;fill-rule:nonzero}
    .fil3 {fill:#FFF212;fill-rule:nonzero}
    .fil1 {fill:url(#id1)}
   ]]>
  </style>
    <clipPath id="id0">
     <path d="M277.45 562.38l633.79 0 -277.45 101.86 -633.79 0 277.45 -101.86z"/>
    </clipPath>
  <linearGradient id="id1" gradientUnits="userSpaceOnUse" x1="826.29" y1="127.11" x2="859.7" y2="363.97">
   <stop offset="0" style="stop-opacity:1; stop-color:#316F98"/>
   <stop offset="1" style="stop-opacity:1; stop-color:#1D6280"/>
  </linearGradient>
 </defs>
 <g id="Camada_x0020_1">
  <metadata id="CorelCorpID_0Corel-Layer"/>
  <rect class="fil0" x="84.06" y="-0" width="1190.49" height="669.65"/>
  <rect class="fil1" x="515.61" y="133.93" width="654.77" height="223.22" rx="27.56" ry="27.56"/>
  <g id="_2418075851760">
   <g style="clip-path:url(#id0)">
    <image x="-0" y="562.38" width="911.24" height="101.86" xlink:href="manutencao_Images\manutencao_ImgID1.png"/>
   </g>
  </g>
  <image id="Cartoon_Character-76-239x300.png" x="98.94" y="14.88" width="487.53" height="639.89" xlink:href="manutencao_Images\manutencao_ImgID2.png"/>
  <path class="fil2" d="M604.84 227.33l0 -63.22 12.6 0 14.95 44.76c1.38,4.17 2.39,7.29 3.02,9.36 0.72,-2.3 1.84,-5.68 3.37,-10.14l15.13 -43.98 11.26 0 0 63.22 -8.07 0 0 -52.92 -18.37 52.92 -7.55 0 -18.28 -53.81 0 53.81 -8.07 0z"/>
  <path id="_1" class="fil2" d="M707.56 221.68c-2.89,2.44 -5.65,4.17 -8.3,5.18 -2.66,1 -5.52,1.5 -8.57,1.5 -5.03,0 -8.89,-1.22 -11.6,-3.68 -2.69,-2.46 -4.05,-5.61 -4.05,-9.42 0,-2.25 0.5,-4.3 1.53,-6.15 1.02,-1.86 2.36,-3.34 4,-4.46 1.66,-1.12 3.52,-1.97 5.59,-2.55 1.52,-0.4 3.81,-0.79 6.89,-1.16 6.27,-0.75 10.89,-1.63 13.85,-2.68 0.03,-1.06 0.04,-1.74 0.04,-2.02 0,-3.16 -0.74,-5.4 -2.21,-6.68 -1.97,-1.77 -4.93,-2.63 -8.83,-2.63 -3.65,0 -6.34,0.63 -8.1,1.91 -1.74,1.28 -3.02,3.55 -3.86,6.8l-7.58 -1.04c0.68,-3.24 1.83,-5.87 3.4,-7.86 1.57,-2 3.87,-3.55 6.86,-4.62 2.99,-1.07 6.45,-1.62 10.39,-1.62 3.92,0 7.08,0.47 9.52,1.38 2.44,0.93 4.24,2.08 5.4,3.47 1.15,1.4 1.94,3.15 2.41,5.28 0.25,1.32 0.38,3.71 0.38,7.15l0 10.35c0,7.23 0.16,11.79 0.5,13.69 0.32,1.91 0.99,3.75 1.96,5.5l-8.11 0c-0.8,-1.6 -1.33,-3.49 -1.55,-5.65zm-0.65 -17.34c-2.83,1.16 -7.05,2.13 -12.67,2.94 -3.19,0.46 -5.46,0.97 -6.77,1.55 -1.33,0.57 -2.36,1.41 -3.06,2.53 -0.72,1.1 -1.09,2.33 -1.09,3.68 0,2.07 0.8,3.8 2.36,5.18 1.56,1.37 3.86,2.06 6.87,2.06 2.99,0 5.65,-0.65 7.98,-1.96 2.33,-1.31 4.05,-3.11 5.14,-5.37 0.84,-1.75 1.25,-4.34 1.25,-7.76l0 -2.86z"/>
  <path id="_2" class="fil2" d="M726.8 227.33l0 -45.79 6.98 0 0 6.51c3.37,-5.03 8.23,-7.55 14.57,-7.55 2.77,0 5.3,0.5 7.61,1.49 2.33,1 4.05,2.3 5.2,3.92 1.16,1.6 1.96,3.52 2.43,5.73 0.28,1.44 0.43,3.96 0.43,7.55l0 28.16 -7.77 0 0 -27.86c0,-3.15 -0.29,-5.52 -0.9,-7.09 -0.6,-1.56 -1.68,-2.81 -3.21,-3.74 -1.55,-0.94 -3.34,-1.41 -5.42,-1.41 -3.31,0 -6.15,1.06 -8.57,3.15 -2.4,2.1 -3.59,6.08 -3.59,11.95l0 25.01 -7.76 0z"/>
  <path id="_3" class="fil2" d="M805.93 227.33l0 -6.73c-3.58,5.18 -8.42,7.76 -14.54,7.76 -2.69,0 -5.23,-0.51 -7.57,-1.54 -2.34,-1.03 -4.08,-2.34 -5.21,-3.9 -1.15,-1.57 -1.94,-3.49 -2.4,-5.76 -0.31,-1.53 -0.47,-3.94 -0.47,-7.26l0 -28.36 7.76 0 0 25.39c0,4.06 0.16,6.79 0.47,8.2 0.5,2.05 1.53,3.64 3.11,4.81 1.59,1.16 3.55,1.74 5.87,1.74 2.33,0 4.5,-0.59 6.55,-1.78 2.05,-1.19 3.49,-2.83 4.33,-4.87 0.85,-2.06 1.28,-5.05 1.28,-8.95l0 -24.54 7.76 0 0 45.79 -6.93 0z"/>
  <path id="_4" class="fil2" d="M841.98 220.38l1.12 6.86c-2.18,0.46 -4.14,0.69 -5.86,0.69 -2.83,0 -5,-0.44 -6.57,-1.34 -1.54,-0.88 -2.63,-2.06 -3.27,-3.52 -0.63,-1.44 -0.96,-4.5 -0.96,-9.16l0 -26.35 -5.7 0 0 -6.03 5.7 0 0 -11.35 7.73 -4.65 0 16 7.8 0 0 6.03 -7.8 0 0 26.77c0,2.22 0.13,3.64 0.4,4.27 0.28,0.63 0.72,1.13 1.34,1.52 0.62,0.37 1.5,0.56 2.65,0.56 0.87,0 2,-0.1 3.42,-0.31z"/>
  <path id="_5" class="fil2" d="M880.91 212.58l8.02 0.99c-1.27,4.7 -3.61,8.33 -7.02,10.92 -3.43,2.58 -7.8,3.87 -13.11,3.87 -6.7,0 -12.01,-2.06 -15.93,-6.18 -3.93,-4.12 -5.89,-9.91 -5.89,-17.35 0,-7.71 1.97,-13.69 5.95,-17.94 3.97,-4.25 9.11,-6.39 15.44,-6.39 6.12,0 11.13,2.09 15,6.26 3.89,4.17 5.83,10.04 5.83,17.59 0,0.47 -0.01,1.16 -0.04,2.08l-34.15 0c0.28,5.03 1.71,8.89 4.27,11.55 2.56,2.68 5.74,4.02 9.57,4.02 2.84,0 5.27,-0.75 7.29,-2.25 2.02,-1.49 3.61,-3.87 4.78,-7.15zm-25.48 -12.54l25.57 0c-0.34,-3.86 -1.33,-6.76 -2.93,-8.67 -2.47,-2.99 -5.68,-4.49 -9.61,-4.49 -3.56,0 -6.56,1.19 -8.99,3.58 -2.43,2.38 -3.77,5.58 -4.03,9.58z"/>
  <path id="_6" class="fil2" d="M898.69 227.33l0 -45.79 6.98 0 0 6.51c3.37,-5.03 8.23,-7.55 14.57,-7.55 2.77,0 5.3,0.5 7.61,1.49 2.33,1 4.05,2.3 5.2,3.92 1.16,1.6 1.96,3.52 2.43,5.73 0.28,1.44 0.43,3.96 0.43,7.55l0 28.16 -7.77 0 0 -27.86c0,-3.15 -0.29,-5.52 -0.9,-7.09 -0.6,-1.56 -1.68,-2.81 -3.21,-3.74 -1.55,-0.94 -3.34,-1.41 -5.42,-1.41 -3.31,0 -6.15,1.06 -8.57,3.15 -2.4,2.1 -3.59,6.08 -3.59,11.95l0 25.01 -7.76 0z"/>
  <path id="_7" class="fil2" d="M977.69 210.55l7.62 1c-0.82,5.25 -2.96,9.38 -6.4,12.35 -3.43,2.97 -7.65,4.46 -12.66,4.46 -6.26,0 -11.3,-2.05 -15.1,-6.14 -3.81,-4.09 -5.73,-9.96 -5.73,-17.62 0,-4.95 0.82,-9.27 2.46,-12.98 1.65,-3.71 4.14,-6.49 7.49,-8.35 3.34,-1.85 6.99,-2.78 10.92,-2.78 4.98,0 9.05,1.27 12.2,3.78 3.16,2.52 5.2,6.08 6.09,10.72l-7.55 1.16c-0.72,-3.08 -1.99,-5.39 -3.81,-6.95 -1.83,-1.55 -4.03,-2.33 -6.62,-2.33 -3.92,0 -7.09,1.4 -9.54,4.21 -2.44,2.8 -3.67,7.23 -3.67,13.29 0,6.15 1.18,10.63 3.55,13.42 2.36,2.78 5.43,4.18 9.23,4.18 3.05,0 5.58,-0.94 7.62,-2.81 2.05,-1.87 3.34,-4.74 3.89,-8.63zm-17.99 22.56l2.24 -7.64 5.78 0 -1.43 4.62c2.44,0.28 4.28,1.03 5.52,2.25 1.24,1.22 1.86,2.59 1.86,4.08 0,2.16 -1.03,4.06 -3.11,5.71 -2.06,1.66 -5.18,2.49 -9.35,2.49 -2.37,0 -4.43,-0.18 -6.21,-0.51l0.47 -5.05c1.84,0.12 3.19,0.18 4.05,0.18 2.71,0 4.61,-0.38 5.7,-1.13 0.84,-0.57 1.25,-1.27 1.25,-2.1 0,-0.51 -0.16,-0.99 -0.5,-1.38 -0.32,-0.4 -0.94,-0.75 -1.83,-1.03 -0.9,-0.29 -2.37,-0.44 -4.44,-0.47z"/>
  <path id="_8" class="fil2" d="M1021.84 221.68c-2.89,2.44 -5.65,4.17 -8.3,5.18 -2.66,1 -5.52,1.5 -8.57,1.5 -5.03,0 -8.89,-1.22 -11.6,-3.68 -2.69,-2.46 -4.05,-5.61 -4.05,-9.42 0,-2.25 0.5,-4.3 1.53,-6.15 1.02,-1.86 2.36,-3.34 4,-4.46 1.66,-1.12 3.52,-1.97 5.59,-2.55 1.52,-0.4 3.81,-0.79 6.89,-1.16 6.27,-0.75 10.89,-1.63 13.85,-2.68 0.03,-1.06 0.04,-1.74 0.04,-2.02 0,-3.16 -0.74,-5.4 -2.21,-6.68 -1.97,-1.77 -4.93,-2.63 -8.83,-2.63 -3.65,0 -6.34,0.63 -8.1,1.91 -1.74,1.28 -3.02,3.55 -3.86,6.8l-7.58 -1.04c0.68,-3.24 1.83,-5.87 3.4,-7.86 1.57,-2 3.87,-3.55 6.86,-4.62 2.99,-1.07 6.45,-1.62 10.39,-1.62 3.92,0 7.08,0.47 9.52,1.38 2.44,0.93 4.24,2.08 5.4,3.47 1.15,1.4 1.94,3.15 2.41,5.28 0.25,1.32 0.38,3.71 0.38,7.15l0 10.35c0,7.23 0.16,11.79 0.5,13.69 0.32,1.91 0.99,3.75 1.96,5.5l-8.11 0c-0.8,-1.6 -1.33,-3.49 -1.55,-5.65zm-0.65 -17.34c-2.83,1.16 -7.05,2.13 -12.67,2.94 -3.19,0.46 -5.46,0.97 -6.77,1.55 -1.33,0.57 -2.36,1.41 -3.06,2.53 -0.72,1.1 -1.09,2.33 -1.09,3.68 0,2.07 0.8,3.8 2.36,5.18 1.56,1.37 3.86,2.06 6.87,2.06 2.99,0 5.65,-0.65 7.98,-1.96 2.33,-1.31 4.05,-3.11 5.14,-5.37 0.84,-1.75 1.25,-4.34 1.25,-7.76l0 -2.86zm-25.18 -29.57c-0.03,-2.99 0.79,-5.39 2.46,-7.17 1.63,-1.78 3.74,-2.66 6.3,-2.66 1.78,0 4.21,0.77 7.29,2.33 1.69,0.87 3.05,1.3 4.05,1.3 0.93,0 1.62,-0.25 2.12,-0.75 0.49,-0.51 0.82,-1.5 1.03,-3l5.61 0c-0.09,3.28 -0.91,5.74 -2.49,7.37 -1.56,1.63 -3.55,2.46 -5.96,2.46 -1.81,0 -4.21,-0.81 -7.17,-2.41 -1.93,-1.03 -3.33,-1.56 -4.22,-1.56 -0.97,0 -1.77,0.35 -2.37,1.05 -0.63,0.69 -0.93,1.71 -0.9,3.06l-5.74 0z"/>
  <path id="_9" class="fil2" d="M1038.18 204.43c0,-8.48 2.36,-14.76 7.08,-18.84 3.93,-3.39 8.73,-5.09 14.4,-5.09 6.3,0 11.45,2.06 15.44,6.2 4,4.12 5.99,9.82 5.99,17.09 0,5.9 -0.88,10.54 -2.65,13.91 -1.77,3.39 -4.34,6.01 -7.71,7.87 -3.39,1.87 -7.06,2.8 -11.07,2.8 -6.4,0 -11.58,-2.05 -15.54,-6.17 -3.96,-4.11 -5.93,-10.02 -5.93,-17.77zm7.98 0c0,5.87 1.28,10.26 3.84,13.17 2.56,2.93 5.79,4.39 9.66,4.39 3.86,0 7.06,-1.47 9.63,-4.4 2.55,-2.93 3.83,-7.4 3.83,-13.41 0,-5.67 -1.28,-9.96 -3.86,-12.88 -2.58,-2.91 -5.77,-4.37 -9.6,-4.37 -3.87,0 -7.09,1.46 -9.66,4.36 -2.56,2.9 -3.84,7.29 -3.84,13.14z"/>
  <path id="_10" class="fil3" d="M639.52 326l0 -63.22 23.84 0c4.2,0 7.4,0.21 9.61,0.6 3.11,0.51 5.71,1.5 7.82,2.96 2.09,1.44 3.78,3.49 5.06,6.09 1.28,2.62 1.91,5.49 1.91,8.63 0,5.37 -1.71,9.94 -5.12,13.66 -3.43,3.71 -9.61,5.58 -18.55,5.58l-16.22 0 0 25.7 -8.36 0zm8.36 -33.16l16.35 0c5.4,0 9.24,-1 11.51,-3.02 2.27,-2.02 3.4,-4.84 3.4,-8.49 0,-2.65 -0.66,-4.92 -2,-6.8 -1.34,-1.88 -3.09,-3.12 -5.28,-3.72 -1.41,-0.37 -4,-0.56 -7.8,-0.56l-16.18 0 0 22.59z"/>
  <path id="_11" class="fil3" d="M697.35 326l0 -45.79 6.98 0 0 6.93c1.78,-3.24 3.43,-5.39 4.95,-6.42 1.5,-1.03 3.16,-1.56 4.97,-1.56 2.62,0 5.27,0.84 7.98,2.5l-2.68 7.21c-1.88,-1.13 -3.78,-1.69 -5.68,-1.69 -1.71,0 -3.22,0.51 -4.58,1.53 -1.35,1.03 -2.31,2.44 -2.89,4.25 -0.87,2.75 -1.3,5.77 -1.3,9.05l0 23.98 -7.76 0z"/>
  <path id="_12" class="fil3" d="M758.18 311.25l8.02 0.99c-1.27,4.7 -3.61,8.33 -7.02,10.92 -3.43,2.58 -7.8,3.87 -13.11,3.87 -6.7,0 -12.01,-2.06 -15.93,-6.18 -3.93,-4.12 -5.89,-9.91 -5.89,-17.35 0,-7.71 1.97,-13.69 5.95,-17.94 3.97,-4.25 9.11,-6.39 15.44,-6.39 6.12,0 11.13,2.09 15,6.26 3.89,4.17 5.83,10.04 5.83,17.59 0,0.47 -0.01,1.16 -0.04,2.08l-34.15 0c0.28,5.03 1.71,8.89 4.27,11.55 2.56,2.68 5.74,4.02 9.57,4.02 2.84,0 5.27,-0.75 7.29,-2.25 2.02,-1.49 3.61,-3.87 4.78,-7.15zm-25.48 -12.54l25.57 0c-0.34,-3.86 -1.33,-6.76 -2.93,-8.67 -2.47,-2.99 -5.68,-4.49 -9.61,-4.49 -3.56,0 -6.56,1.19 -8.99,3.58 -2.43,2.38 -3.77,5.58 -4.03,9.58z"/>
  <path id="_13" class="fil3" d="M788.68 326l-17.43 -45.79 8.2 0 9.83 27.42c1.06,2.96 2.03,6.03 2.93,9.23 0.69,-2.41 1.65,-5.31 2.88,-8.71l10.19 -27.94 7.98 0 -17.34 45.79 -7.24 0z"/>
  <path id="_14" class="fil3" d="M851.46 311.25l8.02 0.99c-1.27,4.7 -3.61,8.33 -7.02,10.92 -3.43,2.58 -7.8,3.87 -13.11,3.87 -6.7,0 -12.01,-2.06 -15.93,-6.18 -3.93,-4.12 -5.89,-9.91 -5.89,-17.35 0,-7.71 1.97,-13.69 5.95,-17.94 3.97,-4.25 9.11,-6.39 15.44,-6.39 6.12,0 11.13,2.09 15,6.26 3.89,4.17 5.83,10.04 5.83,17.59 0,0.47 -0.01,1.16 -0.04,2.08l-34.15 0c0.28,5.03 1.71,8.89 4.27,11.55 2.56,2.68 5.74,4.02 9.57,4.02 2.84,0 5.27,-0.75 7.29,-2.25 2.02,-1.49 3.61,-3.87 4.78,-7.15zm-25.48 -12.54l25.57 0c-0.34,-3.86 -1.33,-6.76 -2.93,-8.67 -2.47,-2.99 -5.68,-4.49 -9.61,-4.49 -3.56,0 -6.56,1.19 -8.99,3.58 -2.43,2.38 -3.77,5.58 -4.03,9.58z"/>
  <path id="_15" class="fil3" d="M869.24 326l0 -45.79 6.98 0 0 6.51c3.37,-5.03 8.23,-7.55 14.57,-7.55 2.77,0 5.3,0.5 7.61,1.49 2.33,1 4.05,2.3 5.2,3.92 1.16,1.6 1.96,3.52 2.43,5.73 0.28,1.44 0.43,3.96 0.43,7.55l0 28.16 -7.77 0 0 -27.86c0,-3.15 -0.29,-5.52 -0.9,-7.09 -0.6,-1.56 -1.68,-2.81 -3.21,-3.74 -1.55,-0.94 -3.34,-1.41 -5.42,-1.41 -3.31,0 -6.15,1.06 -8.57,3.15 -2.4,2.1 -3.59,6.08 -3.59,11.95l0 25.01 -7.76 0z"/>
  <path id="_16" class="fil3" d="M935.3 319.05l1.12 6.86c-2.18,0.46 -4.14,0.69 -5.86,0.69 -2.83,0 -5,-0.44 -6.57,-1.34 -1.54,-0.88 -2.63,-2.06 -3.27,-3.52 -0.63,-1.44 -0.96,-4.5 -0.96,-9.16l0 -26.35 -5.7 0 0 -6.03 5.7 0 0 -11.35 7.73 -4.65 0 16 7.8 0 0 6.03 -7.8 0 0 26.77c0,2.22 0.13,3.64 0.4,4.27 0.28,0.63 0.72,1.13 1.34,1.52 0.62,0.37 1.5,0.56 2.65,0.56 0.87,0 2,-0.1 3.42,-0.31z"/>
  <path id="_17" class="fil3" d="M942.92 271.71l0 -8.93 7.77 0 0 8.93 -7.77 0zm0 54.28l0 -45.79 7.77 0 0 45.79 -7.77 0z"/>
  <path id="_18" class="fil3" d="M975.23 326l-17.43 -45.79 8.2 0 9.83 27.42c1.06,2.96 2.03,6.03 2.93,9.23 0.69,-2.41 1.65,-5.31 2.88,-8.71l10.19 -27.94 7.98 0 -17.34 45.79 -7.24 0z"/>
  <path id="_19" class="fil3" d="M1036.55 320.34c-2.89,2.44 -5.65,4.17 -8.3,5.18 -2.66,1 -5.52,1.5 -8.57,1.5 -5.03,0 -8.89,-1.22 -11.6,-3.68 -2.69,-2.46 -4.05,-5.61 -4.05,-9.42 0,-2.25 0.5,-4.3 1.53,-6.15 1.02,-1.86 2.36,-3.34 4,-4.46 1.66,-1.12 3.52,-1.97 5.59,-2.55 1.52,-0.4 3.81,-0.79 6.89,-1.16 6.27,-0.75 10.89,-1.63 13.85,-2.68 0.03,-1.06 0.04,-1.74 0.04,-2.02 0,-3.16 -0.74,-5.4 -2.21,-6.68 -1.97,-1.77 -4.93,-2.63 -8.83,-2.63 -3.65,0 -6.34,0.63 -8.1,1.91 -1.74,1.28 -3.02,3.55 -3.86,6.8l-7.58 -1.04c0.68,-3.24 1.83,-5.87 3.4,-7.86 1.57,-2 3.87,-3.55 6.86,-4.62 2.99,-1.07 6.45,-1.62 10.39,-1.62 3.92,0 7.08,0.47 9.52,1.38 2.44,0.93 4.24,2.08 5.4,3.47 1.15,1.4 1.94,3.15 2.41,5.28 0.25,1.32 0.38,3.71 0.38,7.15l0 10.35c0,7.23 0.16,11.79 0.5,13.69 0.32,1.91 0.99,3.75 1.96,5.5l-8.11 0c-0.8,-1.6 -1.33,-3.49 -1.55,-5.65zm-0.65 -17.34c-2.83,1.16 -7.05,2.13 -12.67,2.94 -3.19,0.46 -5.46,0.97 -6.77,1.55 -1.33,0.57 -2.36,1.41 -3.06,2.53 -0.72,1.1 -1.09,2.33 -1.09,3.68 0,2.07 0.8,3.8 2.36,5.18 1.56,1.37 3.86,2.06 6.87,2.06 2.99,0 5.65,-0.65 7.98,-1.96 2.33,-1.31 4.05,-3.11 5.14,-5.37 0.84,-1.75 1.25,-4.34 1.25,-7.76l0 -2.86z"/>
 </g>
</svg>
